<svg width="24" height="17" viewBox="0 0 24 17" fill="none" xmlns="http://www.w3.org/2000/svg">
<g filter="url(#filter0_d_2822_255)">
<path fill-rule="evenodd" clip-rule="evenodd" d="M11.9997 13.2715C8.9337 11.5252 7.22366 9.78955 6.39675 8.28361C5.55041 6.74228 5.62425 5.4441 6.09389 4.52273C7.05921 2.62892 9.80427 2.02333 11.4768 4.13865L11.9997 4.80001L12.5227 4.13868C14.1955 2.02327 16.9407 2.62896 17.906 4.52273C18.3756 5.44409 18.4494 6.74226 17.603 8.28359C16.776 9.78954 15.0659 11.5252 11.9997 13.2715ZM11.9998 2.73726C9.64696 0.501518 6.17604 1.42555 4.90598 3.91723C4.20895 5.2847 4.19943 7.05212 5.22802 8.92536C6.24749 10.782 8.28009 12.7417 11.6772 14.6194L11.9997 14.7976L12.3222 14.6194C15.7195 12.7417 17.7522 10.782 18.7717 8.92538C19.8004 7.05214 19.7909 5.28472 19.0939 3.91723C17.8238 1.4255 14.3528 0.501552 11.9998 2.73726Z" fill="#FF4242"/>
</g>
<defs>
<filter id="filter0_d_2822_255" x="0.414551" y="1.46875" width="23.1709" height="21.3281" filterUnits="userSpaceOnUse" color-interpolation-filters="sRGB">
<feFlood flood-opacity="0" result="BackgroundImageFix"/>
<feColorMatrix in="SourceAlpha" type="matrix" values="0 0 0 0 0 0 0 0 0 0 0 0 0 0 0 0 0 0 127 0" result="hardAlpha"/>
<feOffset dy="4"/>
<feGaussianBlur stdDeviation="2"/>
<feComposite in2="hardAlpha" operator="out"/>
<feColorMatrix type="matrix" values="0 0 0 0 0 0 0 0 0 0 0 0 0 0 0 0 0 0 0.25 0"/>
<feBlend mode="normal" in2="BackgroundImageFix" result="effect1_dropShadow_2822_255"/>
<feBlend mode="normal" in="SourceGraphic" in2="effect1_dropShadow_2822_255" result="shape"/>
</filter>
</defs>
</svg>
