<svg width="390" height="420" viewBox="0 0 390 420" fill="none" xmlns="http://www.w3.org/2000/svg">
<rect width="390" height="420" rx="4" fill="#F4F5F7"/>
<path d="M96.4833 172.54C96.6033 172.54 96.7033 172.547 96.7833 172.56C96.8633 172.567 96.9333 172.587 96.9933 172.62C97.0599 172.647 97.1233 172.69 97.1833 172.75C97.2433 172.803 97.3099 172.877 97.3833 172.97L104.973 182.64C104.947 182.407 104.927 182.18 104.913 181.96C104.907 181.733 104.903 181.523 104.903 181.33V172.54H107.273V187H105.883C105.67 187 105.493 186.967 105.353 186.9C105.213 186.833 105.077 186.713 104.943 186.54L97.3833 176.91C97.4033 177.123 97.4166 177.337 97.4233 177.55C97.4366 177.757 97.4433 177.947 97.4433 178.12V187H95.0733V172.54H96.4833ZM114.29 176.58C114.937 176.58 115.53 176.683 116.07 176.89C116.617 177.097 117.087 177.4 117.48 177.8C117.874 178.193 118.18 178.68 118.4 179.26C118.62 179.833 118.73 180.49 118.73 181.23C118.73 181.417 118.72 181.573 118.7 181.7C118.687 181.82 118.657 181.917 118.61 181.99C118.57 182.057 118.514 182.107 118.44 182.14C118.367 182.167 118.274 182.18 118.16 182.18H111.82C111.894 183.233 112.177 184.007 112.67 184.5C113.164 184.993 113.817 185.24 114.63 185.24C115.03 185.24 115.374 185.193 115.66 185.1C115.954 185.007 116.207 184.903 116.42 184.79C116.64 184.677 116.83 184.573 116.99 184.48C117.157 184.387 117.317 184.34 117.47 184.34C117.57 184.34 117.657 184.36 117.73 184.4C117.804 184.44 117.867 184.497 117.92 184.57L118.64 185.47C118.367 185.79 118.06 186.06 117.72 186.28C117.38 186.493 117.024 186.667 116.65 186.8C116.284 186.927 115.907 187.017 115.52 187.07C115.14 187.123 114.77 187.15 114.41 187.15C113.697 187.15 113.034 187.033 112.42 186.8C111.807 186.56 111.274 186.21 110.82 185.75C110.367 185.283 110.01 184.71 109.75 184.03C109.49 183.343 109.36 182.55 109.36 181.65C109.36 180.95 109.474 180.293 109.7 179.68C109.927 179.06 110.25 178.523 110.67 178.07C111.097 177.61 111.614 177.247 112.22 176.98C112.834 176.713 113.524 176.58 114.29 176.58ZM114.34 178.35C113.62 178.35 113.057 178.553 112.65 178.96C112.244 179.367 111.984 179.943 111.87 180.69H116.51C116.51 180.37 116.467 180.07 116.38 179.79C116.294 179.503 116.16 179.253 115.98 179.04C115.8 178.827 115.574 178.66 115.3 178.54C115.027 178.413 114.707 178.35 114.34 178.35ZM119.484 176.74H121.444C121.631 176.74 121.787 176.783 121.914 176.87C122.041 176.957 122.121 177.067 122.154 177.2L123.624 182.68C123.704 182.98 123.767 183.273 123.814 183.56C123.867 183.847 123.917 184.133 123.964 184.42C124.037 184.133 124.114 183.847 124.194 183.56C124.281 183.273 124.371 182.98 124.464 182.68L126.164 177.18C126.204 177.047 126.284 176.937 126.404 176.85C126.524 176.763 126.664 176.72 126.824 176.72H127.914C128.094 176.72 128.244 176.763 128.364 176.85C128.484 176.937 128.564 177.047 128.604 177.18L130.284 182.78C130.371 183.067 130.447 183.347 130.514 183.62C130.587 183.887 130.657 184.157 130.724 184.43C130.771 184.143 130.821 183.857 130.874 183.57C130.934 183.283 131.007 182.987 131.094 182.68L132.614 177.2C132.647 177.067 132.727 176.957 132.854 176.87C132.981 176.783 133.127 176.74 133.294 176.74H135.164L131.914 187H129.924C129.711 187 129.557 186.853 129.464 186.56L127.614 180.63C127.554 180.437 127.497 180.243 127.444 180.05C127.397 179.85 127.357 179.653 127.324 179.46C127.284 179.66 127.241 179.86 127.194 180.06C127.147 180.253 127.094 180.45 127.034 180.65L125.164 186.56C125.071 186.853 124.891 187 124.624 187H122.734L119.484 176.74ZM146.512 178.74C146.445 178.847 146.375 178.923 146.302 178.97C146.228 179.01 146.135 179.03 146.022 179.03C145.902 179.03 145.772 178.997 145.632 178.93C145.498 178.863 145.342 178.79 145.162 178.71C144.982 178.623 144.775 178.547 144.542 178.48C144.315 178.413 144.045 178.38 143.732 178.38C143.245 178.38 142.862 178.483 142.582 178.69C142.302 178.897 142.162 179.167 142.162 179.5C142.162 179.72 142.232 179.907 142.372 180.06C142.518 180.207 142.708 180.337 142.942 180.45C143.182 180.563 143.452 180.667 143.752 180.76C144.052 180.847 144.358 180.943 144.672 181.05C144.985 181.157 145.292 181.28 145.592 181.42C145.892 181.553 146.158 181.727 146.392 181.94C146.632 182.147 146.822 182.397 146.962 182.69C147.108 182.983 147.182 183.337 147.182 183.75C147.182 184.243 147.092 184.7 146.912 185.12C146.732 185.533 146.468 185.893 146.122 186.2C145.775 186.5 145.345 186.737 144.832 186.91C144.325 187.077 143.742 187.16 143.082 187.16C142.728 187.16 142.382 187.127 142.042 187.06C141.708 187 141.385 186.913 141.072 186.8C140.765 186.687 140.478 186.553 140.212 186.4C139.952 186.247 139.722 186.08 139.522 185.9L140.092 184.96C140.165 184.847 140.252 184.76 140.352 184.7C140.452 184.64 140.578 184.61 140.732 184.61C140.885 184.61 141.028 184.653 141.162 184.74C141.302 184.827 141.462 184.92 141.642 185.02C141.822 185.12 142.032 185.213 142.272 185.3C142.518 185.387 142.828 185.43 143.202 185.43C143.495 185.43 143.745 185.397 143.952 185.33C144.165 185.257 144.338 185.163 144.472 185.05C144.612 184.937 144.712 184.807 144.772 184.66C144.838 184.507 144.872 184.35 144.872 184.19C144.872 183.95 144.798 183.753 144.652 183.6C144.512 183.447 144.322 183.313 144.082 183.2C143.848 183.087 143.578 182.987 143.272 182.9C142.972 182.807 142.662 182.707 142.342 182.6C142.028 182.493 141.718 182.37 141.412 182.23C141.112 182.083 140.842 181.9 140.602 181.68C140.368 181.46 140.178 181.19 140.032 180.87C139.892 180.55 139.822 180.163 139.822 179.71C139.822 179.29 139.905 178.89 140.072 178.51C140.238 178.13 140.482 177.8 140.802 177.52C141.128 177.233 141.532 177.007 142.012 176.84C142.498 176.667 143.058 176.58 143.692 176.58C144.398 176.58 145.042 176.697 145.622 176.93C146.202 177.163 146.685 177.47 147.072 177.85L146.512 178.74ZM152.522 187.16C151.635 187.16 150.952 186.91 150.472 186.41C149.992 185.903 149.752 185.207 149.752 184.32V178.59H148.712C148.579 178.59 148.462 178.547 148.362 178.46C148.269 178.373 148.222 178.243 148.222 178.07V177.09L149.872 176.82L150.392 174.02C150.419 173.887 150.479 173.783 150.572 173.71C150.672 173.637 150.795 173.6 150.942 173.6H152.222V176.83H154.922V178.59H152.222V184.15C152.222 184.47 152.302 184.72 152.462 184.9C152.622 185.08 152.835 185.17 153.102 185.17C153.255 185.17 153.382 185.153 153.482 185.12C153.589 185.08 153.679 185.04 153.752 185C153.832 184.96 153.902 184.923 153.962 184.89C154.022 184.85 154.082 184.83 154.142 184.83C154.215 184.83 154.275 184.85 154.322 184.89C154.369 184.923 154.419 184.977 154.472 185.05L155.212 186.25C154.852 186.55 154.439 186.777 153.972 186.93C153.505 187.083 153.022 187.16 152.522 187.16ZM159.146 176.74V183.26C159.146 183.887 159.29 184.373 159.576 184.72C159.87 185.06 160.306 185.23 160.886 185.23C161.313 185.23 161.713 185.137 162.086 184.95C162.46 184.757 162.813 184.493 163.146 184.16V176.74H165.616V187H164.106C163.786 187 163.576 186.85 163.476 186.55L163.306 185.73C163.093 185.943 162.873 186.14 162.646 186.32C162.42 186.493 162.176 186.643 161.916 186.77C161.663 186.89 161.386 186.983 161.086 187.05C160.793 187.123 160.476 187.16 160.136 187.16C159.576 187.16 159.08 187.067 158.646 186.88C158.22 186.687 157.86 186.417 157.566 186.07C157.273 185.723 157.05 185.313 156.896 184.84C156.75 184.36 156.676 183.833 156.676 183.26V176.74H159.146ZM175.474 187C175.154 187 174.944 186.85 174.844 186.55L174.644 185.56C174.43 185.8 174.207 186.017 173.974 186.21C173.74 186.403 173.487 186.57 173.214 186.71C172.947 186.85 172.657 186.957 172.344 187.03C172.037 187.11 171.704 187.15 171.344 187.15C170.784 187.15 170.27 187.033 169.804 186.8C169.337 186.567 168.934 186.23 168.594 185.79C168.26 185.343 168 184.793 167.814 184.14C167.634 183.487 167.544 182.74 167.544 181.9C167.544 181.14 167.647 180.433 167.854 179.78C168.06 179.127 168.357 178.56 168.744 178.08C169.13 177.6 169.594 177.227 170.134 176.96C170.674 176.687 171.28 176.55 171.954 176.55C172.527 176.55 173.017 176.643 173.424 176.83C173.83 177.01 174.194 177.253 174.514 177.56V172.14H176.984V187H175.474ZM172.184 185.19C172.697 185.19 173.134 185.083 173.494 184.87C173.854 184.657 174.194 184.353 174.514 183.96V179.36C174.234 179.02 173.927 178.78 173.594 178.64C173.267 178.5 172.914 178.43 172.534 178.43C172.16 178.43 171.82 178.5 171.514 178.64C171.214 178.78 170.957 178.993 170.744 179.28C170.537 179.56 170.377 179.92 170.264 180.36C170.15 180.793 170.094 181.307 170.094 181.9C170.094 182.5 170.14 183.01 170.234 183.43C170.334 183.843 170.474 184.183 170.654 184.45C170.834 184.71 171.054 184.9 171.314 185.02C171.574 185.133 171.864 185.19 172.184 185.19ZM183.3 189.82C183.227 189.993 183.13 190.123 183.01 190.21C182.897 190.303 182.72 190.35 182.48 190.35H180.64L182.56 186.24L178.41 176.74H180.57C180.77 176.74 180.923 176.787 181.03 176.88C181.137 176.973 181.217 177.08 181.27 177.2L183.46 182.52C183.533 182.693 183.597 182.873 183.65 183.06C183.703 183.247 183.75 183.433 183.79 183.62C183.843 183.427 183.9 183.24 183.96 183.06C184.027 182.88 184.097 182.697 184.17 182.51L186.23 177.2C186.283 177.067 186.37 176.957 186.49 176.87C186.617 176.783 186.757 176.74 186.91 176.74H188.89L183.3 189.82ZM192.954 176.74V187H190.484V176.74H192.954ZM193.324 173.75C193.324 173.963 193.281 174.163 193.194 174.35C193.107 174.537 192.991 174.7 192.844 174.84C192.704 174.98 192.537 175.093 192.344 175.18C192.151 175.26 191.944 175.3 191.724 175.3C191.511 175.3 191.307 175.26 191.114 175.18C190.927 175.093 190.764 174.98 190.624 174.84C190.484 174.7 190.371 174.537 190.284 174.35C190.204 174.163 190.164 173.963 190.164 173.75C190.164 173.53 190.204 173.323 190.284 173.13C190.371 172.937 190.484 172.77 190.624 172.63C190.764 172.49 190.927 172.38 191.114 172.3C191.307 172.213 191.511 172.17 191.724 172.17C191.944 172.17 192.151 172.213 192.344 172.3C192.537 172.38 192.704 172.49 192.844 172.63C192.991 172.77 193.107 172.937 193.194 173.13C193.281 173.323 193.324 173.53 193.324 173.75ZM195.754 187V176.74H197.264C197.584 176.74 197.794 176.89 197.894 177.19L198.064 178C198.27 177.787 198.487 177.593 198.714 177.42C198.947 177.247 199.19 177.097 199.444 176.97C199.704 176.843 199.98 176.747 200.274 176.68C200.567 176.613 200.887 176.58 201.234 176.58C201.794 176.58 202.29 176.677 202.724 176.87C203.157 177.057 203.517 177.323 203.804 177.67C204.097 178.01 204.317 178.42 204.464 178.9C204.617 179.373 204.694 179.897 204.694 180.47V187H202.224V180.47C202.224 179.843 202.077 179.36 201.784 179.02C201.497 178.673 201.064 178.5 200.484 178.5C200.057 178.5 199.657 178.597 199.284 178.79C198.91 178.983 198.557 179.247 198.224 179.58V187H195.754ZM210.671 176.56C211.111 176.56 211.524 176.607 211.911 176.7C212.297 176.787 212.651 176.917 212.971 177.09H215.921V178.01C215.921 178.163 215.881 178.283 215.801 178.37C215.721 178.457 215.584 178.517 215.391 178.55L214.471 178.72C214.537 178.893 214.587 179.077 214.621 179.27C214.661 179.463 214.681 179.667 214.681 179.88C214.681 180.387 214.577 180.847 214.371 181.26C214.171 181.667 213.891 182.013 213.531 182.3C213.177 182.587 212.754 182.81 212.261 182.97C211.774 183.123 211.244 183.2 210.671 183.2C210.284 183.2 209.907 183.163 209.541 183.09C209.221 183.283 209.061 183.5 209.061 183.74C209.061 183.947 209.154 184.1 209.341 184.2C209.534 184.293 209.784 184.36 210.091 184.4C210.404 184.44 210.757 184.467 211.151 184.48C211.544 184.487 211.947 184.507 212.361 184.54C212.774 184.573 213.177 184.633 213.571 184.72C213.964 184.8 214.314 184.93 214.621 185.11C214.934 185.29 215.184 185.537 215.371 185.85C215.564 186.157 215.661 186.553 215.661 187.04C215.661 187.493 215.547 187.933 215.321 188.36C215.101 188.787 214.777 189.167 214.351 189.5C213.931 189.833 213.414 190.1 212.801 190.3C212.187 190.507 211.487 190.61 210.701 190.61C209.921 190.61 209.244 190.533 208.671 190.38C208.097 190.233 207.621 190.033 207.241 189.78C206.867 189.533 206.587 189.247 206.401 188.92C206.214 188.593 206.121 188.253 206.121 187.9C206.121 187.42 206.267 187.017 206.561 186.69C206.854 186.363 207.261 186.103 207.781 185.91C207.527 185.77 207.324 185.583 207.171 185.35C207.017 185.117 206.941 184.813 206.941 184.44C206.941 184.287 206.967 184.13 207.021 183.97C207.074 183.803 207.154 183.64 207.261 183.48C207.374 183.32 207.514 183.17 207.681 183.03C207.847 182.883 208.044 182.753 208.271 182.64C207.751 182.36 207.341 181.987 207.041 181.52C206.747 181.053 206.601 180.507 206.601 179.88C206.601 179.373 206.701 178.917 206.901 178.51C207.107 178.097 207.391 177.747 207.751 177.46C208.117 177.167 208.547 176.943 209.041 176.79C209.541 176.637 210.084 176.56 210.671 176.56ZM213.381 187.46C213.381 187.26 213.321 187.097 213.201 186.97C213.081 186.843 212.917 186.747 212.711 186.68C212.504 186.607 212.261 186.553 211.981 186.52C211.707 186.487 211.414 186.463 211.101 186.45C210.794 186.43 210.474 186.413 210.141 186.4C209.814 186.38 209.497 186.35 209.191 186.31C208.911 186.463 208.684 186.647 208.511 186.86C208.344 187.067 208.261 187.307 208.261 187.58C208.261 187.76 208.304 187.927 208.391 188.08C208.484 188.24 208.627 188.377 208.821 188.49C209.021 188.603 209.277 188.69 209.591 188.75C209.904 188.817 210.287 188.85 210.741 188.85C211.201 188.85 211.597 188.813 211.931 188.74C212.264 188.673 212.537 188.577 212.751 188.45C212.971 188.33 213.131 188.183 213.231 188.01C213.331 187.843 213.381 187.66 213.381 187.46ZM210.671 181.62C210.977 181.62 211.244 181.58 211.471 181.5C211.697 181.413 211.884 181.297 212.031 181.15C212.184 181.003 212.297 180.827 212.371 180.62C212.451 180.413 212.491 180.187 212.491 179.94C212.491 179.433 212.337 179.033 212.031 178.74C211.731 178.44 211.277 178.29 210.671 178.29C210.064 178.29 209.607 178.44 209.301 178.74C209.001 179.033 208.851 179.433 208.851 179.94C208.851 180.18 208.887 180.403 208.961 180.61C209.041 180.817 209.154 180.997 209.301 181.15C209.454 181.297 209.644 181.413 209.871 181.5C210.104 181.58 210.371 181.62 210.671 181.62ZM221.34 190.35V176.74H222.85C223.01 176.74 223.146 176.777 223.26 176.85C223.373 176.923 223.446 177.037 223.48 177.19L223.68 178.14C224.093 177.667 224.566 177.283 225.1 176.99C225.64 176.697 226.27 176.55 226.99 176.55C227.55 176.55 228.06 176.667 228.52 176.9C228.986 177.133 229.386 177.473 229.72 177.92C230.06 178.36 230.32 178.907 230.5 179.56C230.686 180.207 230.78 180.95 230.78 181.79C230.78 182.557 230.676 183.267 230.47 183.92C230.263 184.573 229.966 185.14 229.58 185.62C229.2 186.1 228.736 186.477 228.19 186.75C227.65 187.017 227.043 187.15 226.37 187.15C225.79 187.15 225.296 187.063 224.89 186.89C224.49 186.71 224.13 186.463 223.81 186.15V190.35H221.34ZM226.14 178.5C225.626 178.5 225.186 178.61 224.82 178.83C224.46 179.043 224.123 179.347 223.81 179.74V184.34C224.09 184.687 224.393 184.93 224.72 185.07C225.053 185.203 225.41 185.27 225.79 185.27C226.163 185.27 226.5 185.2 226.8 185.06C227.106 184.92 227.363 184.707 227.57 184.42C227.783 184.133 227.946 183.773 228.06 183.34C228.173 182.9 228.23 182.383 228.23 181.79C228.23 181.19 228.18 180.683 228.08 180.27C227.986 179.85 227.85 179.51 227.67 179.25C227.49 178.99 227.27 178.8 227.01 178.68C226.756 178.56 226.466 178.5 226.14 178.5ZM232.648 187V176.74H234.098C234.351 176.74 234.528 176.787 234.628 176.88C234.728 176.973 234.795 177.133 234.828 177.36L234.978 178.6C235.345 177.967 235.775 177.467 236.268 177.1C236.761 176.733 237.315 176.55 237.928 176.55C238.435 176.55 238.855 176.667 239.188 176.9L238.868 178.75C238.848 178.87 238.805 178.957 238.738 179.01C238.671 179.057 238.581 179.08 238.468 179.08C238.368 179.08 238.231 179.057 238.058 179.01C237.885 178.963 237.655 178.94 237.368 178.94C236.855 178.94 236.415 179.083 236.048 179.37C235.681 179.65 235.371 180.063 235.118 180.61V187H232.648ZM245.192 176.58C245.959 176.58 246.652 176.703 247.272 176.95C247.899 177.197 248.432 177.547 248.872 178C249.312 178.453 249.652 179.007 249.892 179.66C250.132 180.313 250.252 181.043 250.252 181.85C250.252 182.663 250.132 183.397 249.892 184.05C249.652 184.703 249.312 185.26 248.872 185.72C248.432 186.18 247.899 186.533 247.272 186.78C246.652 187.027 245.959 187.15 245.192 187.15C244.426 187.15 243.729 187.027 243.102 186.78C242.476 186.533 241.939 186.18 241.492 185.72C241.052 185.26 240.709 184.703 240.462 184.05C240.222 183.397 240.102 182.663 240.102 181.85C240.102 181.043 240.222 180.313 240.462 179.66C240.709 179.007 241.052 178.453 241.492 178C241.939 177.547 242.476 177.197 243.102 176.95C243.729 176.703 244.426 176.58 245.192 176.58ZM245.192 185.25C246.046 185.25 246.676 184.963 247.082 184.39C247.496 183.817 247.702 182.977 247.702 181.87C247.702 180.763 247.496 179.92 247.082 179.34C246.676 178.76 246.046 178.47 245.192 178.47C244.326 178.47 243.686 178.763 243.272 179.35C242.859 179.93 242.652 180.77 242.652 181.87C242.652 182.97 242.859 183.81 243.272 184.39C243.686 184.963 244.326 185.25 245.192 185.25ZM255.729 176.56C256.169 176.56 256.583 176.607 256.969 176.7C257.356 176.787 257.709 176.917 258.029 177.09H260.979V178.01C260.979 178.163 260.939 178.283 260.859 178.37C260.779 178.457 260.643 178.517 260.449 178.55L259.529 178.72C259.596 178.893 259.646 179.077 259.679 179.27C259.719 179.463 259.739 179.667 259.739 179.88C259.739 180.387 259.636 180.847 259.429 181.26C259.229 181.667 258.949 182.013 258.589 182.3C258.236 182.587 257.813 182.81 257.319 182.97C256.833 183.123 256.303 183.2 255.729 183.2C255.343 183.2 254.966 183.163 254.599 183.09C254.279 183.283 254.119 183.5 254.119 183.74C254.119 183.947 254.213 184.1 254.399 184.2C254.593 184.293 254.843 184.36 255.149 184.4C255.463 184.44 255.816 184.467 256.209 184.48C256.603 184.487 257.006 184.507 257.419 184.54C257.833 184.573 258.236 184.633 258.629 184.72C259.023 184.8 259.373 184.93 259.679 185.11C259.993 185.29 260.243 185.537 260.429 185.85C260.623 186.157 260.719 186.553 260.719 187.04C260.719 187.493 260.606 187.933 260.379 188.36C260.159 188.787 259.836 189.167 259.409 189.5C258.989 189.833 258.473 190.1 257.859 190.3C257.246 190.507 256.546 190.61 255.759 190.61C254.979 190.61 254.303 190.533 253.729 190.38C253.156 190.233 252.679 190.033 252.299 189.78C251.926 189.533 251.646 189.247 251.459 188.92C251.273 188.593 251.179 188.253 251.179 187.9C251.179 187.42 251.326 187.017 251.619 186.69C251.913 186.363 252.319 186.103 252.839 185.91C252.586 185.77 252.383 185.583 252.229 185.35C252.076 185.117 251.999 184.813 251.999 184.44C251.999 184.287 252.026 184.13 252.079 183.97C252.133 183.803 252.213 183.64 252.319 183.48C252.433 183.32 252.573 183.17 252.739 183.03C252.906 182.883 253.103 182.753 253.329 182.64C252.809 182.36 252.399 181.987 252.099 181.52C251.806 181.053 251.659 180.507 251.659 179.88C251.659 179.373 251.759 178.917 251.959 178.51C252.166 178.097 252.449 177.747 252.809 177.46C253.176 177.167 253.606 176.943 254.099 176.79C254.599 176.637 255.143 176.56 255.729 176.56ZM258.439 187.46C258.439 187.26 258.379 187.097 258.259 186.97C258.139 186.843 257.976 186.747 257.769 186.68C257.563 186.607 257.319 186.553 257.039 186.52C256.766 186.487 256.473 186.463 256.159 186.45C255.853 186.43 255.533 186.413 255.199 186.4C254.873 186.38 254.556 186.35 254.249 186.31C253.969 186.463 253.743 186.647 253.569 186.86C253.403 187.067 253.319 187.307 253.319 187.58C253.319 187.76 253.363 187.927 253.449 188.08C253.543 188.24 253.686 188.377 253.879 188.49C254.079 188.603 254.336 188.69 254.649 188.75C254.963 188.817 255.346 188.85 255.799 188.85C256.259 188.85 256.656 188.813 256.989 188.74C257.323 188.673 257.596 188.577 257.809 188.45C258.029 188.33 258.189 188.183 258.289 188.01C258.389 187.843 258.439 187.66 258.439 187.46ZM255.729 181.62C256.036 181.62 256.303 181.58 256.529 181.5C256.756 181.413 256.943 181.297 257.089 181.15C257.243 181.003 257.356 180.827 257.429 180.62C257.509 180.413 257.549 180.187 257.549 179.94C257.549 179.433 257.396 179.033 257.089 178.74C256.789 178.44 256.336 178.29 255.729 178.29C255.123 178.29 254.666 178.44 254.359 178.74C254.059 179.033 253.909 179.433 253.909 179.94C253.909 180.18 253.946 180.403 254.019 180.61C254.099 180.817 254.213 180.997 254.359 181.15C254.513 181.297 254.703 181.413 254.929 181.5C255.163 181.58 255.429 181.62 255.729 181.62ZM262.531 187V176.74H263.981C264.234 176.74 264.411 176.787 264.511 176.88C264.611 176.973 264.678 177.133 264.711 177.36L264.861 178.6C265.228 177.967 265.658 177.467 266.151 177.1C266.644 176.733 267.198 176.55 267.811 176.55C268.318 176.55 268.738 176.667 269.071 176.9L268.751 178.75C268.731 178.87 268.688 178.957 268.621 179.01C268.554 179.057 268.464 179.08 268.351 179.08C268.251 179.08 268.114 179.057 267.941 179.01C267.768 178.963 267.538 178.94 267.251 178.94C266.738 178.94 266.298 179.083 265.931 179.37C265.564 179.65 265.254 180.063 265.001 180.61V187H262.531ZM278.442 187H277.332C277.099 187 276.915 186.967 276.782 186.9C276.649 186.827 276.549 186.683 276.482 186.47L276.262 185.74C276.002 185.973 275.745 186.18 275.492 186.36C275.245 186.533 274.989 186.68 274.722 186.8C274.455 186.92 274.172 187.01 273.872 187.07C273.572 187.13 273.239 187.16 272.872 187.16C272.439 187.16 272.039 187.103 271.672 186.99C271.305 186.87 270.989 186.693 270.722 186.46C270.462 186.227 270.259 185.937 270.112 185.59C269.965 185.243 269.892 184.84 269.892 184.38C269.892 183.993 269.992 183.613 270.192 183.24C270.399 182.86 270.739 182.52 271.212 182.22C271.685 181.913 272.315 181.66 273.102 181.46C273.889 181.26 274.865 181.147 276.032 181.12V180.52C276.032 179.833 275.885 179.327 275.592 179C275.305 178.667 274.885 178.5 274.332 178.5C273.932 178.5 273.599 178.547 273.332 178.64C273.065 178.733 272.832 178.84 272.632 178.96C272.439 179.073 272.259 179.177 272.092 179.27C271.925 179.363 271.742 179.41 271.542 179.41C271.375 179.41 271.232 179.367 271.112 179.28C270.992 179.193 270.895 179.087 270.822 178.96L270.372 178.17C271.552 177.09 272.975 176.55 274.642 176.55C275.242 176.55 275.775 176.65 276.242 176.85C276.715 177.043 277.115 177.317 277.442 177.67C277.769 178.017 278.015 178.433 278.182 178.92C278.355 179.407 278.442 179.94 278.442 180.52V187ZM273.642 185.46C273.895 185.46 274.129 185.437 274.342 185.39C274.555 185.343 274.755 185.273 274.942 185.18C275.135 185.087 275.319 184.973 275.492 184.84C275.672 184.7 275.852 184.537 276.032 184.35V182.62C275.312 182.653 274.709 182.717 274.222 182.81C273.742 182.897 273.355 183.01 273.062 183.15C272.769 183.29 272.559 183.453 272.432 183.64C272.312 183.827 272.252 184.03 272.252 184.25C272.252 184.683 272.379 184.993 272.632 185.18C272.892 185.367 273.229 185.46 273.642 185.46ZM280.871 187V176.74H282.381C282.701 176.74 282.911 176.89 283.011 177.19L283.171 177.95C283.351 177.75 283.537 177.567 283.731 177.4C283.931 177.233 284.141 177.09 284.361 176.97C284.587 176.85 284.827 176.757 285.081 176.69C285.341 176.617 285.624 176.58 285.931 176.58C286.577 176.58 287.107 176.757 287.521 177.11C287.941 177.457 288.254 177.92 288.461 178.5C288.621 178.16 288.821 177.87 289.061 177.63C289.301 177.383 289.564 177.183 289.851 177.03C290.137 176.877 290.441 176.763 290.761 176.69C291.087 176.617 291.414 176.58 291.741 176.58C292.307 176.58 292.811 176.667 293.251 176.84C293.691 177.013 294.061 177.267 294.361 177.6C294.661 177.933 294.887 178.34 295.041 178.82C295.201 179.3 295.281 179.85 295.281 180.47V187H292.811V180.47C292.811 179.817 292.667 179.327 292.381 179C292.094 178.667 291.674 178.5 291.121 178.5C290.867 178.5 290.631 178.543 290.411 178.63C290.197 178.717 290.007 178.843 289.841 179.01C289.681 179.17 289.554 179.373 289.461 179.62C289.367 179.867 289.321 180.15 289.321 180.47V187H286.841V180.47C286.841 179.783 286.701 179.283 286.421 178.97C286.147 178.657 285.741 178.5 285.201 178.5C284.847 178.5 284.514 178.59 284.201 178.77C283.894 178.943 283.607 179.183 283.341 179.49V187H280.871ZM141.001 208.91C140.927 209.003 140.854 209.077 140.781 209.13C140.714 209.183 140.614 209.21 140.481 209.21C140.354 209.21 140.231 209.173 140.111 209.1C139.991 209.02 139.847 208.933 139.681 208.84C139.514 208.74 139.314 208.653 139.081 208.58C138.854 208.5 138.571 208.46 138.231 208.46C137.797 208.46 137.417 208.54 137.091 208.7C136.764 208.853 136.491 209.077 136.271 209.37C136.057 209.663 135.897 210.02 135.791 210.44C135.684 210.853 135.631 211.323 135.631 211.85C135.631 212.397 135.687 212.883 135.801 213.31C135.921 213.737 136.091 214.097 136.311 214.39C136.531 214.677 136.797 214.897 137.111 215.05C137.424 215.197 137.777 215.27 138.171 215.27C138.564 215.27 138.881 215.223 139.121 215.13C139.367 215.03 139.574 214.923 139.741 214.81C139.907 214.69 140.051 214.583 140.171 214.49C140.297 214.39 140.437 214.34 140.591 214.34C140.791 214.34 140.941 214.417 141.041 214.57L141.751 215.47C141.477 215.79 141.181 216.06 140.861 216.28C140.541 216.493 140.207 216.667 139.861 216.8C139.521 216.927 139.167 217.017 138.801 217.07C138.434 217.123 138.071 217.15 137.711 217.15C137.077 217.15 136.481 217.033 135.921 216.8C135.361 216.56 134.871 216.213 134.451 215.76C134.037 215.307 133.707 214.753 133.461 214.1C133.221 213.44 133.101 212.69 133.101 211.85C133.101 211.097 133.207 210.4 133.421 209.76C133.641 209.113 133.961 208.557 134.381 208.09C134.801 207.617 135.321 207.247 135.941 206.98C136.561 206.713 137.274 206.58 138.081 206.58C138.847 206.58 139.517 206.703 140.091 206.95C140.671 207.197 141.191 207.55 141.651 208.01L141.001 208.91ZM147.702 206.58C148.469 206.58 149.162 206.703 149.782 206.95C150.409 207.197 150.942 207.547 151.382 208C151.822 208.453 152.162 209.007 152.402 209.66C152.642 210.313 152.762 211.043 152.762 211.85C152.762 212.663 152.642 213.397 152.402 214.05C152.162 214.703 151.822 215.26 151.382 215.72C150.942 216.18 150.409 216.533 149.782 216.78C149.162 217.027 148.469 217.15 147.702 217.15C146.935 217.15 146.239 217.027 145.612 216.78C144.985 216.533 144.449 216.18 144.002 215.72C143.562 215.26 143.219 214.703 142.972 214.05C142.732 213.397 142.612 212.663 142.612 211.85C142.612 211.043 142.732 210.313 142.972 209.66C143.219 209.007 143.562 208.453 144.002 208C144.449 207.547 144.985 207.197 145.612 206.95C146.239 206.703 146.935 206.58 147.702 206.58ZM147.702 215.25C148.555 215.25 149.185 214.963 149.592 214.39C150.005 213.817 150.212 212.977 150.212 211.87C150.212 210.763 150.005 209.92 149.592 209.34C149.185 208.76 148.555 208.47 147.702 208.47C146.835 208.47 146.195 208.763 145.782 209.35C145.369 209.93 145.162 210.77 145.162 211.87C145.162 212.97 145.369 213.81 145.782 214.39C146.195 214.963 146.835 215.25 147.702 215.25ZM154.689 217V206.74H156.199C156.519 206.74 156.729 206.89 156.829 207.19L156.989 207.95C157.169 207.75 157.356 207.567 157.549 207.4C157.749 207.233 157.959 207.09 158.179 206.97C158.406 206.85 158.646 206.757 158.899 206.69C159.159 206.617 159.442 206.58 159.749 206.58C160.396 206.58 160.926 206.757 161.339 207.11C161.759 207.457 162.072 207.92 162.279 208.5C162.439 208.16 162.639 207.87 162.879 207.63C163.119 207.383 163.382 207.183 163.669 207.03C163.956 206.877 164.259 206.763 164.579 206.69C164.906 206.617 165.232 206.58 165.559 206.58C166.126 206.58 166.629 206.667 167.069 206.84C167.509 207.013 167.879 207.267 168.179 207.6C168.479 207.933 168.706 208.34 168.859 208.82C169.019 209.3 169.099 209.85 169.099 210.47V217H166.629V210.47C166.629 209.817 166.486 209.327 166.199 209C165.912 208.667 165.492 208.5 164.939 208.5C164.686 208.5 164.449 208.543 164.229 208.63C164.016 208.717 163.826 208.843 163.659 209.01C163.499 209.17 163.372 209.373 163.279 209.62C163.186 209.867 163.139 210.15 163.139 210.47V217H160.659V210.47C160.659 209.783 160.519 209.283 160.239 208.97C159.966 208.657 159.559 208.5 159.019 208.5C158.666 208.5 158.332 208.59 158.019 208.77C157.712 208.943 157.426 209.183 157.159 209.49V217H154.689ZM174.155 206.74V217H171.685V206.74H174.155ZM174.525 203.75C174.525 203.963 174.482 204.163 174.395 204.35C174.308 204.537 174.192 204.7 174.045 204.84C173.905 204.98 173.738 205.093 173.545 205.18C173.352 205.26 173.145 205.3 172.925 205.3C172.712 205.3 172.508 205.26 172.315 205.18C172.128 205.093 171.965 204.98 171.825 204.84C171.685 204.7 171.572 204.537 171.485 204.35C171.405 204.163 171.365 203.963 171.365 203.75C171.365 203.53 171.405 203.323 171.485 203.13C171.572 202.937 171.685 202.77 171.825 202.63C171.965 202.49 172.128 202.38 172.315 202.3C172.508 202.213 172.712 202.17 172.925 202.17C173.145 202.17 173.352 202.213 173.545 202.3C173.738 202.38 173.905 202.49 174.045 202.63C174.192 202.77 174.308 202.937 174.395 203.13C174.482 203.323 174.525 203.53 174.525 203.75ZM176.955 217V206.74H178.465C178.785 206.74 178.995 206.89 179.095 207.19L179.265 208C179.471 207.787 179.688 207.593 179.915 207.42C180.148 207.247 180.391 207.097 180.645 206.97C180.905 206.843 181.181 206.747 181.475 206.68C181.768 206.613 182.088 206.58 182.435 206.58C182.995 206.58 183.491 206.677 183.925 206.87C184.358 207.057 184.718 207.323 185.005 207.67C185.298 208.01 185.518 208.42 185.665 208.9C185.818 209.373 185.895 209.897 185.895 210.47V217H183.425V210.47C183.425 209.843 183.278 209.36 182.985 209.02C182.698 208.673 182.265 208.5 181.685 208.5C181.258 208.5 180.858 208.597 180.485 208.79C180.111 208.983 179.758 209.247 179.425 209.58V217H176.955ZM191.872 206.56C192.312 206.56 192.725 206.607 193.112 206.7C193.499 206.787 193.852 206.917 194.172 207.09H197.122V208.01C197.122 208.163 197.082 208.283 197.002 208.37C196.922 208.457 196.785 208.517 196.592 208.55L195.672 208.72C195.739 208.893 195.789 209.077 195.822 209.27C195.862 209.463 195.882 209.667 195.882 209.88C195.882 210.387 195.779 210.847 195.572 211.26C195.372 211.667 195.092 212.013 194.732 212.3C194.379 212.587 193.955 212.81 193.462 212.97C192.975 213.123 192.445 213.2 191.872 213.2C191.485 213.2 191.109 213.163 190.742 213.09C190.422 213.283 190.262 213.5 190.262 213.74C190.262 213.947 190.355 214.1 190.542 214.2C190.735 214.293 190.985 214.36 191.292 214.4C191.605 214.44 191.959 214.467 192.352 214.48C192.745 214.487 193.149 214.507 193.562 214.54C193.975 214.573 194.379 214.633 194.772 214.72C195.165 214.8 195.515 214.93 195.822 215.11C196.135 215.29 196.385 215.537 196.572 215.85C196.765 216.157 196.862 216.553 196.862 217.04C196.862 217.493 196.749 217.933 196.522 218.36C196.302 218.787 195.979 219.167 195.552 219.5C195.132 219.833 194.615 220.1 194.002 220.3C193.389 220.507 192.689 220.61 191.902 220.61C191.122 220.61 190.445 220.533 189.872 220.38C189.299 220.233 188.822 220.033 188.442 219.78C188.069 219.533 187.789 219.247 187.602 218.92C187.415 218.593 187.322 218.253 187.322 217.9C187.322 217.42 187.469 217.017 187.762 216.69C188.055 216.363 188.462 216.103 188.982 215.91C188.729 215.77 188.525 215.583 188.372 215.35C188.219 215.117 188.142 214.813 188.142 214.44C188.142 214.287 188.169 214.13 188.222 213.97C188.275 213.803 188.355 213.64 188.462 213.48C188.575 213.32 188.715 213.17 188.882 213.03C189.049 212.883 189.245 212.753 189.472 212.64C188.952 212.36 188.542 211.987 188.242 211.52C187.949 211.053 187.802 210.507 187.802 209.88C187.802 209.373 187.902 208.917 188.102 208.51C188.309 208.097 188.592 207.747 188.952 207.46C189.319 207.167 189.749 206.943 190.242 206.79C190.742 206.637 191.285 206.56 191.872 206.56ZM194.582 217.46C194.582 217.26 194.522 217.097 194.402 216.97C194.282 216.843 194.119 216.747 193.912 216.68C193.705 216.607 193.462 216.553 193.182 216.52C192.909 216.487 192.615 216.463 192.302 216.45C191.995 216.43 191.675 216.413 191.342 216.4C191.015 216.38 190.699 216.35 190.392 216.31C190.112 216.463 189.885 216.647 189.712 216.86C189.545 217.067 189.462 217.307 189.462 217.58C189.462 217.76 189.505 217.927 189.592 218.08C189.685 218.24 189.829 218.377 190.022 218.49C190.222 218.603 190.479 218.69 190.792 218.75C191.105 218.817 191.489 218.85 191.942 218.85C192.402 218.85 192.799 218.813 193.132 218.74C193.465 218.673 193.739 218.577 193.952 218.45C194.172 218.33 194.332 218.183 194.432 218.01C194.532 217.843 194.582 217.66 194.582 217.46ZM191.872 211.62C192.179 211.62 192.445 211.58 192.672 211.5C192.899 211.413 193.085 211.297 193.232 211.15C193.385 211.003 193.499 210.827 193.572 210.62C193.652 210.413 193.692 210.187 193.692 209.94C193.692 209.433 193.539 209.033 193.232 208.74C192.932 208.44 192.479 208.29 191.872 208.29C191.265 208.29 190.809 208.44 190.502 208.74C190.202 209.033 190.052 209.433 190.052 209.94C190.052 210.18 190.089 210.403 190.162 210.61C190.242 210.817 190.355 210.997 190.502 211.15C190.655 211.297 190.845 211.413 191.072 211.5C191.305 211.58 191.572 211.62 191.872 211.62ZM208.631 208.74C208.564 208.847 208.494 208.923 208.421 208.97C208.347 209.01 208.254 209.03 208.141 209.03C208.021 209.03 207.891 208.997 207.751 208.93C207.617 208.863 207.461 208.79 207.281 208.71C207.101 208.623 206.894 208.547 206.661 208.48C206.434 208.413 206.164 208.38 205.851 208.38C205.364 208.38 204.981 208.483 204.701 208.69C204.421 208.897 204.281 209.167 204.281 209.5C204.281 209.72 204.351 209.907 204.491 210.06C204.637 210.207 204.827 210.337 205.061 210.45C205.301 210.563 205.571 210.667 205.871 210.76C206.171 210.847 206.477 210.943 206.791 211.05C207.104 211.157 207.411 211.28 207.711 211.42C208.011 211.553 208.277 211.727 208.511 211.94C208.751 212.147 208.941 212.397 209.081 212.69C209.227 212.983 209.301 213.337 209.301 213.75C209.301 214.243 209.211 214.7 209.031 215.12C208.851 215.533 208.587 215.893 208.241 216.2C207.894 216.5 207.464 216.737 206.951 216.91C206.444 217.077 205.861 217.16 205.201 217.16C204.847 217.16 204.501 217.127 204.161 217.06C203.827 217 203.504 216.913 203.191 216.8C202.884 216.687 202.597 216.553 202.331 216.4C202.071 216.247 201.841 216.08 201.641 215.9L202.211 214.96C202.284 214.847 202.371 214.76 202.471 214.7C202.571 214.64 202.697 214.61 202.851 214.61C203.004 214.61 203.147 214.653 203.281 214.74C203.421 214.827 203.581 214.92 203.761 215.02C203.941 215.12 204.151 215.213 204.391 215.3C204.637 215.387 204.947 215.43 205.321 215.43C205.614 215.43 205.864 215.397 206.071 215.33C206.284 215.257 206.457 215.163 206.591 215.05C206.731 214.937 206.831 214.807 206.891 214.66C206.957 214.507 206.991 214.35 206.991 214.19C206.991 213.95 206.917 213.753 206.771 213.6C206.631 213.447 206.441 213.313 206.201 213.2C205.967 213.087 205.697 212.987 205.391 212.9C205.091 212.807 204.781 212.707 204.461 212.6C204.147 212.493 203.837 212.37 203.531 212.23C203.231 212.083 202.961 211.9 202.721 211.68C202.487 211.46 202.297 211.19 202.151 210.87C202.011 210.55 201.941 210.163 201.941 209.71C201.941 209.29 202.024 208.89 202.191 208.51C202.357 208.13 202.601 207.8 202.921 207.52C203.247 207.233 203.651 207.007 204.131 206.84C204.617 206.667 205.177 206.58 205.811 206.58C206.517 206.58 207.161 206.697 207.741 206.93C208.321 207.163 208.804 207.47 209.191 207.85L208.631 208.74ZM215.651 206.58C216.418 206.58 217.111 206.703 217.731 206.95C218.358 207.197 218.891 207.547 219.331 208C219.771 208.453 220.111 209.007 220.351 209.66C220.591 210.313 220.711 211.043 220.711 211.85C220.711 212.663 220.591 213.397 220.351 214.05C220.111 214.703 219.771 215.26 219.331 215.72C218.891 216.18 218.358 216.533 217.731 216.78C217.111 217.027 216.418 217.15 215.651 217.15C214.885 217.15 214.188 217.027 213.561 216.78C212.935 216.533 212.398 216.18 211.951 215.72C211.511 215.26 211.168 214.703 210.921 214.05C210.681 213.397 210.561 212.663 210.561 211.85C210.561 211.043 210.681 210.313 210.921 209.66C211.168 209.007 211.511 208.453 211.951 208C212.398 207.547 212.935 207.197 213.561 206.95C214.188 206.703 214.885 206.58 215.651 206.58ZM215.651 215.25C216.505 215.25 217.135 214.963 217.541 214.39C217.955 213.817 218.161 212.977 218.161 211.87C218.161 210.763 217.955 209.92 217.541 209.34C217.135 208.76 216.505 208.47 215.651 208.47C214.785 208.47 214.145 208.763 213.731 209.35C213.318 209.93 213.111 210.77 213.111 211.87C213.111 212.97 213.318 213.81 213.731 214.39C214.145 214.963 214.785 215.25 215.651 215.25ZM227.018 206.58C227.785 206.58 228.478 206.703 229.098 206.95C229.725 207.197 230.258 207.547 230.698 208C231.138 208.453 231.478 209.007 231.718 209.66C231.958 210.313 232.078 211.043 232.078 211.85C232.078 212.663 231.958 213.397 231.718 214.05C231.478 214.703 231.138 215.26 230.698 215.72C230.258 216.18 229.725 216.533 229.098 216.78C228.478 217.027 227.785 217.15 227.018 217.15C226.252 217.15 225.555 217.027 224.928 216.78C224.302 216.533 223.765 216.18 223.318 215.72C222.878 215.26 222.535 214.703 222.288 214.05C222.048 213.397 221.928 212.663 221.928 211.85C221.928 211.043 222.048 210.313 222.288 209.66C222.535 209.007 222.878 208.453 223.318 208C223.765 207.547 224.302 207.197 224.928 206.95C225.555 206.703 226.252 206.58 227.018 206.58ZM227.018 215.25C227.872 215.25 228.502 214.963 228.908 214.39C229.322 213.817 229.528 212.977 229.528 211.87C229.528 210.763 229.322 209.92 228.908 209.34C228.502 208.76 227.872 208.47 227.018 208.47C226.152 208.47 225.512 208.763 225.098 209.35C224.685 209.93 224.478 210.77 224.478 211.87C224.478 212.97 224.685 213.81 225.098 214.39C225.512 214.963 226.152 215.25 227.018 215.25ZM234.006 217V206.74H235.516C235.836 206.74 236.046 206.89 236.146 207.19L236.316 208C236.522 207.787 236.739 207.593 236.966 207.42C237.199 207.247 237.442 207.097 237.696 206.97C237.956 206.843 238.232 206.747 238.526 206.68C238.819 206.613 239.139 206.58 239.486 206.58C240.046 206.58 240.542 206.677 240.976 206.87C241.409 207.057 241.769 207.323 242.056 207.67C242.349 208.01 242.569 208.42 242.716 208.9C242.869 209.373 242.946 209.897 242.946 210.47V217H240.476V210.47C240.476 209.843 240.329 209.36 240.036 209.02C239.749 208.673 239.316 208.5 238.736 208.5C238.309 208.5 237.909 208.597 237.536 208.79C237.162 208.983 236.809 209.247 236.476 209.58V217H234.006ZM244.783 215.64C244.783 215.433 244.819 215.237 244.893 215.05C244.973 214.863 245.079 214.703 245.213 214.57C245.353 214.437 245.516 214.33 245.703 214.25C245.889 214.17 246.089 214.13 246.303 214.13C246.509 214.13 246.706 214.17 246.893 214.25C247.079 214.33 247.239 214.437 247.373 214.57C247.506 214.703 247.613 214.863 247.693 215.05C247.773 215.237 247.813 215.433 247.813 215.64C247.813 215.853 247.773 216.053 247.693 216.24C247.613 216.42 247.506 216.577 247.373 216.71C247.239 216.843 247.079 216.947 246.893 217.02C246.706 217.1 246.509 217.14 246.303 217.14C246.089 217.14 245.889 217.1 245.703 217.02C245.516 216.947 245.353 216.843 245.213 216.71C245.079 216.577 244.973 216.42 244.893 216.24C244.819 216.053 244.783 215.853 244.783 215.64ZM249.275 215.64C249.275 215.433 249.312 215.237 249.385 215.05C249.465 214.863 249.572 214.703 249.705 214.57C249.845 214.437 250.008 214.33 250.195 214.25C250.382 214.17 250.582 214.13 250.795 214.13C251.002 214.13 251.198 214.17 251.385 214.25C251.572 214.33 251.732 214.437 251.865 214.57C251.998 214.703 252.105 214.863 252.185 215.05C252.265 215.237 252.305 215.433 252.305 215.64C252.305 215.853 252.265 216.053 252.185 216.24C252.105 216.42 251.998 216.577 251.865 216.71C251.732 216.843 251.572 216.947 251.385 217.02C251.198 217.1 251.002 217.14 250.795 217.14C250.582 217.14 250.382 217.1 250.195 217.02C250.008 216.947 249.845 216.843 249.705 216.71C249.572 216.577 249.465 216.42 249.385 216.24C249.312 216.053 249.275 215.853 249.275 215.64ZM253.767 215.64C253.767 215.433 253.804 215.237 253.877 215.05C253.957 214.863 254.064 214.703 254.197 214.57C254.337 214.437 254.5 214.33 254.687 214.25C254.874 214.17 255.074 214.13 255.287 214.13C255.494 214.13 255.69 214.17 255.877 214.25C256.064 214.33 256.224 214.437 256.357 214.57C256.49 214.703 256.597 214.863 256.677 215.05C256.757 215.237 256.797 215.433 256.797 215.64C256.797 215.853 256.757 216.053 256.677 216.24C256.597 216.42 256.49 216.577 256.357 216.71C256.224 216.843 256.064 216.947 255.877 217.02C255.69 217.1 255.494 217.14 255.287 217.14C255.074 217.14 254.874 217.1 254.687 217.02C254.5 216.947 254.337 216.843 254.197 216.71C254.064 216.577 253.957 216.42 253.877 216.24C253.804 216.053 253.767 215.853 253.767 215.64Z" fill="#424551"/>
</svg>
