<svg width="500" height="458" viewBox="0 0 500 458" fill="none" xmlns="http://www.w3.org/2000/svg">
<path d="M314.204 13.2207L349.01 46.805L383.992 236.125H55.8584L314.204 13.2207Z" fill="#FFCF2D"/>
<path d="M349.309 46.5417L314.397 12.8519L320.237 6.78564C328.837 -2.14672 344.332 -1.12688 353.266 7.45381C362.201 16.0521 363.766 31.5431 355.166 40.4754L349.309 46.5417Z" fill="white"/>
<path d="M349.326 47.2799L313.659 12.8692L319.867 6.41609C324.053 2.05541 330.015 -0.21285 336.663 0.015734C343.03 0.244318 349.221 2.81149 353.653 7.06668C358.085 11.3219 360.882 17.4233 361.339 23.7885C361.814 30.4174 359.756 36.4661 355.57 40.8268L349.326 47.2799ZM315.136 12.834L349.291 45.7853L354.779 40.1059C358.771 35.9738 360.706 30.2064 360.266 23.8764C359.826 17.7574 357.153 11.9197 352.897 7.84034C348.641 3.761 342.714 1.29932 336.611 1.08832C330.279 0.859738 324.598 3.0225 320.623 7.15459L315.136 12.834Z" fill="#FFCF2D"/>
<path d="M355.148 41.0029C355.007 41.0029 354.884 40.9502 354.779 40.8623L319.85 7.17246C319.638 6.96146 319.638 6.64496 319.832 6.43396C320.043 6.22296 320.377 6.22296 320.571 6.41637L355.5 40.1062C355.711 40.3172 355.711 40.6337 355.517 40.8447C355.429 40.9502 355.289 41.0029 355.148 41.0029Z" fill="#FFCF2D"/>
<path d="M422.615 235.212C422.544 235.212 422.474 235.194 422.403 235.159C422.14 235.036 422.017 234.719 422.14 234.456L471.121 125.228L375.356 8.68482V8.66724C373.545 6.20556 370.889 4.62306 367.864 4.18347C364.839 3.74389 361.832 4.53514 359.404 6.39898L355.5 9.38816C355.271 9.56399 354.937 9.52883 354.761 9.28266C354.585 9.05407 354.621 8.71999 354.867 8.54415L358.771 5.55498C361.427 3.53289 364.716 2.6713 368.022 3.14605C371.329 3.62081 374.231 5.34398 376.201 8.03424L472.352 125.069L472.212 125.368L423.089 234.895C423.001 235.089 422.808 235.212 422.615 235.212Z" fill="#3FB1B5"/>
<path d="M470.171 131.117C473.144 131.117 475.553 128.709 475.553 125.737C475.553 122.765 473.144 120.356 470.171 120.356C467.199 120.356 464.79 122.765 464.79 125.737C464.79 128.709 467.199 131.117 470.171 131.117Z" fill="white"/>
<path d="M470.172 131.645C466.918 131.645 464.262 128.99 464.262 125.737C464.262 122.484 466.918 119.829 470.172 119.829C473.425 119.829 476.081 122.484 476.081 125.737C476.081 128.99 473.425 131.645 470.172 131.645ZM470.172 120.884C467.498 120.884 465.317 123.064 465.317 125.737C465.317 128.41 467.498 130.59 470.172 130.59C472.845 130.59 475.026 128.41 475.026 125.737C475.026 123.064 472.845 120.884 470.172 120.884Z" fill="#FFCF2D"/>
<path d="M408.966 222.445H435.189C442.734 222.445 448.837 228.564 448.837 236.09V236.477H395.3V236.09C395.318 228.564 401.421 222.445 408.966 222.445Z" fill="white"/>
<path d="M449.365 237.004H394.773V236.09C394.791 228.283 401.157 221.918 408.966 221.918H435.189C442.998 221.918 449.365 228.283 449.365 236.09V237.004V237.004ZM395.828 235.949H448.31C448.239 228.775 442.383 222.973 435.189 222.973H408.966C401.79 222.973 395.916 228.775 395.828 235.949Z" fill="#FFCF2D"/>
<path d="M281.93 196.545H115.92C109.677 196.545 104.629 191.499 104.629 185.257V69.1714C104.629 62.9292 109.677 57.8828 115.92 57.8828H281.93C288.174 57.8828 293.222 62.9292 293.222 69.1714V185.239C293.239 191.481 288.174 196.545 281.93 196.545Z" fill="white"/>
<path d="M281.931 197.073H115.92C109.395 197.073 104.102 191.781 104.102 185.257V69.1715C104.102 62.6481 109.395 57.3555 115.92 57.3555H281.931C288.456 57.3555 293.749 62.6481 293.749 69.1715V185.239C293.767 188.387 292.536 191.359 290.302 193.592C288.069 195.842 285.096 197.073 281.931 197.073ZM115.92 58.4105C109.993 58.4105 105.157 63.2459 105.157 69.1715V185.257C105.157 191.183 109.993 196.018 115.92 196.018H281.931C284.815 196.018 287.523 194.893 289.564 192.853C291.586 190.813 292.712 188.106 292.694 185.239V69.1715C292.694 63.2459 287.858 58.4105 281.931 58.4105H115.92Z" fill="#3FB1B5"/>
<path d="M282.036 185.749H117.626C115.182 185.749 113.212 183.762 113.212 181.335V70.2787C113.212 67.8346 115.199 65.8652 117.626 65.8652H282.036C284.481 65.8652 286.451 67.8522 286.451 70.2787V181.318C286.468 183.762 284.481 185.749 282.036 185.749Z" fill="#66B0F0"/>
<path d="M282.036 186.276H117.627C114.901 186.276 112.685 184.061 112.685 181.336V70.2788C112.685 67.5534 114.901 65.3379 117.627 65.3379H282.036C284.762 65.3379 286.978 67.5534 286.978 70.2788V181.318C286.996 182.637 286.486 183.885 285.554 184.817C284.604 185.749 283.373 186.276 282.036 186.276ZM117.627 66.3929C115.481 66.3929 113.74 68.1336 113.74 70.2788V181.336C113.74 183.481 115.481 185.221 117.627 185.221H282.036C283.074 185.221 284.059 184.817 284.798 184.079C285.536 183.34 285.923 182.373 285.923 181.336V70.2788C285.923 68.1336 284.182 66.3929 282.036 66.3929H117.627Z" fill="#66B0F0"/>
<path d="M123.519 76.7677H120.916C119.772 76.7677 118.84 75.8357 118.84 74.6928V72.0905C118.84 70.9475 119.772 70.0156 120.916 70.0156H123.519C124.662 70.0156 125.594 70.9475 125.594 72.0905V74.6928C125.576 75.8533 124.662 76.7677 123.519 76.7677ZM120.916 71.0706C120.353 71.0706 119.896 71.5278 119.896 72.0905V74.6928C119.896 75.2555 120.353 75.7127 120.916 75.7127H123.519C124.081 75.7127 124.521 75.2555 124.539 74.6752V72.0905C124.539 71.5278 124.081 71.0706 123.519 71.0706H120.916V71.0706Z" fill="white"/>
<path d="M135.355 76.7677H132.752C131.609 76.7677 130.677 75.8357 130.677 74.6928V72.0905C130.677 70.9475 131.609 70.0156 132.752 70.0156H135.355C136.498 70.0156 137.43 70.9475 137.43 72.0905V74.6928C137.43 75.8357 136.498 76.7677 135.355 76.7677ZM132.752 71.0706C132.189 71.0706 131.732 71.5278 131.732 72.0905V74.6928C131.732 75.2555 132.189 75.7127 132.752 75.7127H135.355C135.918 75.7127 136.375 75.2555 136.375 74.6928V72.0905C136.375 71.5278 135.918 71.0706 135.355 71.0706H132.752Z" fill="white"/>
<path d="M147.192 76.7677H144.589C143.445 76.7677 142.513 75.8357 142.513 74.6928V72.0905C142.513 70.9475 143.445 70.0156 144.589 70.0156H147.192C148.335 70.0156 149.267 70.9475 149.267 72.0905V74.6928C149.267 75.8357 148.335 76.7677 147.192 76.7677ZM144.589 71.0706C144.026 71.0706 143.568 71.5278 143.568 72.0905V74.6928C143.568 75.2555 144.026 75.7127 144.589 75.7127H147.192C147.772 75.7127 148.212 75.2731 148.212 74.6928V72.0905C148.212 71.5278 147.754 71.0706 147.192 71.0706H144.589Z" fill="white"/>
<path d="M233.969 236.126H169.527L182.173 196.546H221.305L233.969 236.126Z" fill="white"/>
<path d="M234.69 236.654H168.806L181.786 196.019H221.692L234.69 236.654ZM170.248 235.599H233.247L220.918 197.074H182.56L170.248 235.599Z" fill="#3FB1B5"/>
<path d="M174.592 220.283L182.173 196.546H221.305L174.592 220.283Z" fill="#3FB1B5"/>
<path d="M272.468 102.808H241.145C237.926 102.808 235.306 100.188 235.306 96.9707V76.7498C235.306 73.532 237.926 70.9121 241.145 70.9121H272.468C275.687 70.9121 278.307 73.532 278.307 76.7498V96.9707C278.307 100.188 275.687 102.808 272.468 102.808ZM241.145 71.9671C238.507 71.9671 236.361 74.1123 236.361 76.7498V96.9707C236.361 99.6082 238.507 101.753 241.145 101.753H272.468C275.107 101.753 277.252 99.6082 277.252 96.9707V76.7498C277.252 74.1123 275.107 71.9671 272.468 71.9671H241.145Z" fill="white"/>
<path d="M268.687 79.1761H244.785C244.486 79.1761 244.258 78.9475 244.258 78.6486C244.258 78.3497 244.486 78.1211 244.785 78.1211H268.687C268.986 78.1211 269.215 78.3497 269.215 78.6486C269.215 78.9475 268.986 79.1761 268.687 79.1761Z" fill="white"/>
<path d="M268.687 84.6273H244.785C244.486 84.6273 244.258 84.3987 244.258 84.0998C244.258 83.8008 244.486 83.5723 244.785 83.5723H268.687C268.986 83.5723 269.215 83.8008 269.215 84.0998C269.215 84.3987 268.986 84.6273 268.687 84.6273Z" fill="white"/>
<path d="M268.687 90.0784H244.785C244.486 90.0784 244.258 89.8499 244.258 89.5509C244.258 89.252 244.486 89.0234 244.785 89.0234H268.687C268.986 89.0234 269.215 89.252 269.215 89.5509C269.215 89.8499 268.986 90.0784 268.687 90.0784Z" fill="white"/>
<path d="M268.687 95.5286H244.785C244.486 95.5286 244.258 95.3001 244.258 95.0011C244.258 94.7022 244.486 94.4736 244.785 94.4736H268.687C268.986 94.4736 269.215 94.7022 269.215 95.0011C269.215 95.3001 268.986 95.5286 268.687 95.5286Z" fill="white"/>
<path d="M281.122 185.75H156.618L149.32 196.212C141.071 208.028 123.642 208.204 115.164 196.546L70.7026 135.408C72.5669 137.729 81.097 135.145 89.2225 129.799C97.4711 124.366 102.8 117.526 101.129 114.994L131.961 154.275L141.405 137.606C143.99 133.193 148.282 130.028 153.277 128.867L185.409 122.063H213.11L243.642 128.797C248.954 130.01 253.456 133.474 256.006 138.275L281.122 185.75Z" fill="white"/>
<path d="M132.119 205.707C125.171 205.707 118.84 202.489 114.742 196.845L70.2803 135.707L71.1245 135.074C72.6194 136.921 80.5515 134.881 88.9408 129.36C92.8452 126.793 96.2397 123.821 98.4909 120.973C100.531 118.405 101.358 116.278 100.689 115.276L101.551 114.66L131.89 153.326L140.948 137.343C143.603 132.806 148.053 129.536 153.153 128.358L185.356 121.535H213.162L213.215 121.553L243.747 128.287C249.2 129.536 253.843 133.088 256.463 138.028L281.983 186.277H156.882L149.741 196.511C145.714 202.278 139.365 205.637 132.312 205.707C132.259 205.707 132.189 205.707 132.119 205.707ZM72.3204 136.727L115.604 196.23C119.543 201.645 125.629 204.722 132.33 204.652C139.03 204.582 145.063 201.399 148.897 195.913L156.354 185.222H280.259L255.549 138.521C253.069 133.844 248.69 130.485 243.536 129.307L213.057 122.59H185.462L153.382 129.377C148.563 130.503 144.36 133.597 141.862 137.87L132.031 155.225L101.885 116.823C101.639 118.142 100.777 119.795 99.2999 121.641C96.9784 124.56 93.496 127.619 89.5036 130.239C83.9283 133.896 77.2274 136.78 73.235 136.78C72.9184 136.78 72.6018 136.762 72.3204 136.727Z" fill="#3FB1B5"/>
<path d="M246.948 185.556C246.755 185.556 246.579 185.451 246.474 185.275L237.627 167.815C237.504 167.551 237.592 167.234 237.856 167.111C238.119 166.988 238.436 167.076 238.559 167.34L247.406 184.8C247.529 185.064 247.441 185.381 247.177 185.504C247.107 185.539 247.036 185.556 246.948 185.556Z" fill="#3FB1B5"/>
<path d="M155.915 187.192C155.827 187.192 155.757 187.174 155.669 187.139C155.405 187.016 155.299 186.682 155.44 186.436L164.199 169.151C164.322 168.888 164.656 168.782 164.902 168.923C165.166 169.046 165.272 169.38 165.131 169.626L156.372 186.911C156.284 187.087 156.108 187.192 155.915 187.192Z" fill="#3FB1B5"/>
<path d="M140.033 165.213C139.875 165.213 139.716 165.143 139.611 165.002L119.543 139.348C119.367 139.119 119.403 138.785 119.631 138.609C119.86 138.433 120.194 138.469 120.37 138.697L140.437 164.351C140.613 164.58 140.578 164.914 140.35 165.09C140.262 165.178 140.138 165.213 140.033 165.213Z" fill="#3FB1B5"/>
<path d="M210.032 140.244L202.311 130.837C202.118 130.608 202.153 130.274 202.381 130.098C202.61 129.905 202.944 129.94 203.12 130.169L210.173 138.732L226.301 125.052C226.529 124.858 226.864 124.894 227.039 125.105C227.233 125.333 227.198 125.667 226.987 125.843L210.032 140.244Z" fill="#3FB1B5"/>
<path d="M189.982 140.579L171.392 125.861C171.163 125.686 171.128 125.352 171.304 125.123C171.479 124.894 171.814 124.859 172.042 125.035L189.788 139.084L196.63 130.345C196.806 130.117 197.14 130.081 197.369 130.257C197.597 130.433 197.632 130.767 197.456 130.996L189.982 140.579Z" fill="#3FB1B5"/>
<path d="M79.1622 144.904C77.4913 144.904 76.612 144.394 76.1723 143.831C75.9964 143.603 76.0316 143.268 76.2602 143.093C76.4888 142.917 76.823 142.952 76.9989 143.181C77.7376 144.112 80.1471 144.06 83.436 143.075C86.9359 142.02 91.157 139.945 94.9911 137.396C98.9131 134.793 102.325 131.787 104.594 128.903C106.652 126.301 107.478 124.155 106.81 123.135C106.652 122.889 106.722 122.573 106.968 122.397C107.215 122.239 107.531 122.309 107.707 122.555C108.657 124.015 107.848 126.494 105.438 129.553C103.099 132.507 99.599 135.602 95.589 138.257C91.6142 140.895 87.4108 142.97 83.7525 144.077C81.7651 144.675 80.2702 144.904 79.1622 144.904Z" fill="#3FB1B5"/>
<path d="M101.727 127.83C100.338 127.83 99.2119 126.704 99.2119 125.315C99.2119 123.926 100.338 122.801 101.727 122.801C103.116 122.801 104.242 123.926 104.242 125.315C104.242 126.704 103.116 127.83 101.727 127.83ZM101.727 123.856C100.918 123.856 100.267 124.506 100.267 125.315C100.267 126.124 100.918 126.775 101.727 126.775C102.536 126.775 103.187 126.124 103.187 125.315C103.187 124.506 102.536 123.856 101.727 123.856Z" fill="#3FB1B5"/>
<path d="M199.866 140.314C198.477 140.314 197.351 139.189 197.351 137.8C197.351 136.411 198.477 135.285 199.866 135.285C201.256 135.285 202.381 136.411 202.381 137.8C202.381 139.189 201.256 140.314 199.866 140.314ZM199.866 136.34C199.057 136.34 198.406 136.991 198.406 137.8C198.406 138.608 199.057 139.259 199.866 139.259C200.675 139.259 201.326 138.608 201.326 137.8C201.326 136.991 200.675 136.34 199.866 136.34Z" fill="#3FB1B5"/>
<path d="M199.866 156.315C198.477 156.315 197.351 155.19 197.351 153.801C197.351 152.411 198.477 151.286 199.866 151.286C201.256 151.286 202.381 152.411 202.381 153.801C202.381 155.19 201.256 156.315 199.866 156.315ZM199.866 152.341C199.057 152.341 198.406 152.992 198.406 153.801C198.406 154.609 199.057 155.26 199.866 155.26C200.675 155.26 201.326 154.609 201.326 153.801C201.326 152.992 200.675 152.341 199.866 152.341Z" fill="#3FB1B5"/>
<path d="M148.686 197.056L156.618 185.75V197.056H148.686Z" fill="#3FB1B5"/>
<path d="M89.0285 129.272C80.903 134.617 72.3729 137.202 70.5087 134.881C70.4735 134.846 70.4559 134.81 70.4207 134.758C70.0338 134.177 70.069 133.386 70.4207 132.419C71.6343 129.237 76.6467 124.313 83.0135 120.128C88.0787 116.787 93.0736 114.466 96.5384 113.746C98.5434 113.341 100.038 113.464 100.759 114.238L100.935 114.449C102.589 116.981 97.2771 123.838 89.0285 129.272Z" fill="#FE5244"/>
<path d="M89.0287 129.272C84.4032 132.314 79.6369 134.477 76.049 135.321L59.9915 112.673C57.7579 109.508 58.4966 105.13 61.6799 102.897L76.137 92.7336L67.9411 78.79C66.7452 76.7679 67.4311 74.148 69.4712 72.9699C70.1396 72.5831 70.8607 72.4072 71.5818 72.4072C72.9712 72.4072 74.343 73.093 75.1521 74.359L100.777 114.203L100.953 114.484C102.589 116.981 97.2774 123.839 89.0287 129.272Z" fill="#E57281"/>
<path d="M80.6745 112.936C80.4458 112.936 80.2172 112.919 79.9886 112.866C79.1092 112.69 78.3529 112.163 77.878 111.424L69.4184 98.7641C69.2601 98.518 69.3304 98.2015 69.5591 98.0256C69.8053 97.8674 70.1219 97.9377 70.2978 98.1663L78.7574 110.826C79.0916 111.336 79.6016 111.688 80.1996 111.811C80.7976 111.934 81.4132 111.811 81.9232 111.477L83.9106 110.176C84.9659 109.49 85.2648 108.083 84.5965 107.028L75.6444 93.155C75.4861 92.9089 75.5565 92.5924 75.8027 92.4341C76.0489 92.2759 76.3655 92.3462 76.5238 92.5924L85.4759 106.466C86.4608 108.013 86.0035 110.07 84.4734 111.055L82.486 112.356C81.9584 112.743 81.3252 112.936 80.6745 112.936Z" fill="#9A3B82"/>
<path d="M74.1144 117.139C73.0239 117.139 71.9511 116.612 71.3003 115.645C71.142 115.398 71.2124 115.082 71.4586 114.906C71.7049 114.748 72.0214 114.818 72.1973 115.064C72.8832 116.102 74.2902 116.401 75.3455 115.733L77.157 114.59C77.6671 114.256 78.0364 113.746 78.1595 113.13C78.2826 112.515 78.1771 111.899 77.843 111.389C77.6847 111.143 77.755 110.827 78.0012 110.651C78.2475 110.493 78.564 110.563 78.7399 110.809C79.2324 111.565 79.4082 112.462 79.2148 113.359C79.0213 114.238 78.4937 114.994 77.7374 115.486L75.9259 116.629C75.3631 116.963 74.7299 117.139 74.1144 117.139Z" fill="#9A3B82"/>
<path d="M67.6775 121.078C66.6222 121.078 65.5845 120.586 64.9338 119.654L60.1324 112.884C59.9565 112.638 60.0268 112.321 60.2555 112.146C60.4841 111.97 60.8183 112.04 60.9942 112.269L65.7956 119.038C66.5167 120.041 67.8709 120.304 68.891 119.654L68.9262 119.636L70.597 118.704C71.1247 118.37 71.4764 117.86 71.6171 117.262C71.7578 116.647 71.6347 116.032 71.3005 115.504L63.0167 103.196C62.8584 102.949 62.9112 102.633 63.1574 102.457C63.4037 102.299 63.7202 102.352 63.8961 102.598L72.1799 114.906C72.69 115.68 72.8483 116.594 72.6548 117.473C72.4613 118.353 71.9337 119.109 71.1598 119.583L71.1422 119.601L69.4714 120.533C68.891 120.92 68.2755 121.078 67.6775 121.078Z" fill="#9A3B82"/>
<path d="M94.7976 104.919L90.5941 98.3956C89.2047 96.2328 86.3027 95.635 84.1746 97.0768L73.7451 104.145C73.7451 104.145 76.7702 109.579 84.1218 105.271L86.5841 109.192C81.554 112.374 80.1119 119.074 83.3832 124.05L94.7976 104.919Z" fill="#E57281"/>
<path d="M83.3831 124.577C83.2072 124.577 83.0489 124.489 82.9434 124.331C81.2901 121.799 80.7097 118.775 81.3605 115.821C81.9585 113.042 83.5589 110.651 85.8629 109.033L83.9459 105.974C81.4132 107.363 79.1093 107.767 77.0691 107.222C74.4837 106.519 73.3229 104.479 73.2702 104.409L73.0415 103.987L83.3127 96.8129C84.4735 96.0392 85.8453 95.7579 87.1996 96.0392C88.5538 96.3206 89.7146 97.1118 90.4709 98.2899L94.6743 104.813C94.8326 105.06 94.7623 105.376 94.5161 105.534C94.2698 105.693 93.9533 105.622 93.795 105.376L89.5915 98.8526C88.9935 97.9207 88.079 97.2877 86.9885 97.0767C85.9157 96.8481 84.8077 97.0767 83.9107 97.6921L74.4661 104.286C74.8882 104.831 75.8379 105.816 77.3505 106.22C79.2148 106.73 81.3957 106.255 83.8403 104.831L84.28 104.567L87.2875 109.367L86.8478 109.649C84.5438 111.108 82.9434 113.394 82.363 116.067C81.7826 118.739 82.2926 121.482 83.8052 123.768C83.9634 124.014 83.8931 124.331 83.6469 124.507C83.5765 124.542 83.4886 124.577 83.3831 124.577Z" fill="#9A3B82"/>
<path d="M89.0287 129.273C84.4032 132.315 79.6369 134.477 76.049 135.321L72.0566 129.695C74.2903 126.776 78.2827 123.259 83.0137 120.147C88.079 116.806 93.0739 114.485 96.5387 113.764C98.5437 113.36 100.039 113.483 100.76 114.256L100.936 114.467C100.953 114.503 100.971 114.52 100.988 114.555C101.006 114.573 101.006 114.591 101.024 114.626C101.041 114.661 101.059 114.678 101.076 114.714C102.272 117.404 97.0135 123.998 89.0287 129.273Z" fill="#9A3B82"/>
<path d="M213.092 106.59V122.046C213.092 126.529 206.866 130.152 199.216 130.152C191.547 130.152 185.339 126.529 185.339 122.046V106.59H213.092Z" fill="#E57281"/>
<path d="M189.401 127.778C186.886 126.318 185.321 124.279 185.321 122.046V106.59H213.092V110.88C213.092 115.329 210.383 119.32 206.268 120.991L189.401 127.778Z" fill="#9A3B82"/>
<path d="M220.831 105.676V105.94C220.831 108.612 218.667 110.775 215.994 110.775H212.811C211.738 115.101 207.833 118.318 203.155 118.318H195.276C190.615 118.318 186.693 115.118 185.638 110.775H182.454C179.781 110.775 177.618 108.612 177.618 105.94V105.676C177.618 103.003 179.781 100.84 182.454 100.84H185.339V97.0249C185.339 92.9455 188.346 89.5695 192.268 89.0068C193.13 90.4487 195.733 93.895 201.044 93.7016C203.542 93.6137 205.863 93.1389 207.781 92.5763C210.085 91.9081 212.389 93.3148 212.969 95.5127C213.057 96.005 213.11 96.4974 213.11 97.0073V100.823H215.994C218.65 100.823 220.831 103.003 220.831 105.676Z" fill="#E57281"/>
<path d="M215.308 100.823H213.092V96.585C213.092 96.2158 213.039 95.8465 212.951 95.5125C212.371 93.3145 210.067 91.9079 207.763 92.576C205.846 93.1387 203.542 93.6135 201.027 93.7014C195.715 93.8948 193.112 90.4484 192.251 89.0066C188.328 89.5693 185.321 92.9453 185.321 97.0246V100.84H182.56C182.56 100.84 179.394 89.3934 181.768 86.1581C184.107 82.9755 186.921 84.3646 186.921 84.3646C186.921 84.3646 185.233 74.8344 194.66 75.0102C204.069 75.1861 216.31 86.1053 217.207 88.1099C218.614 91.1869 215.308 100.823 215.308 100.823Z" fill="#9A3B82"/>
<path d="M214.165 107.012C213.919 107.012 213.725 106.819 213.725 106.572C213.725 104.462 215.449 102.739 217.559 102.739C217.805 102.739 217.999 102.933 217.999 103.179C217.999 103.425 217.805 103.618 217.559 103.618C215.924 103.618 214.604 104.937 214.604 106.572C214.604 106.819 214.411 107.012 214.165 107.012Z" fill="#9A3B82"/>
<path d="M184.301 107.012C184.055 107.012 183.861 106.819 183.861 106.572C183.861 104.937 182.542 103.618 180.906 103.618C180.66 103.618 180.467 103.425 180.467 103.179C180.467 102.933 180.66 102.739 180.906 102.739C183.017 102.739 184.741 104.462 184.741 106.572C184.741 106.819 184.547 107.012 184.301 107.012Z" fill="#9A3B82"/>
<path d="M208.66 97.4643C208.572 97.4643 208.484 97.4292 208.396 97.3764C208.308 97.3061 206.04 95.706 203.138 96.9192C202.909 97.0072 202.663 96.9017 202.557 96.6731C202.469 96.4445 202.575 96.1983 202.803 96.0928C206.18 94.7037 208.801 96.5676 208.906 96.6555C209.1 96.7962 209.153 97.0775 208.994 97.2709C208.924 97.394 208.801 97.4643 208.66 97.4643Z" fill="#9A3B82"/>
<path d="M189.595 97.4643C189.454 97.4643 189.331 97.394 189.243 97.2885C189.103 97.0951 189.138 96.8137 189.331 96.6731C189.437 96.5851 192.075 94.7213 195.434 96.1104C195.663 96.1983 195.768 96.4621 195.68 96.6907C195.593 96.9192 195.329 97.0247 195.1 96.9368C192.18 95.7235 189.876 97.3764 189.841 97.394C189.771 97.4292 189.683 97.4643 189.595 97.4643Z" fill="#9A3B82"/>
<path d="M200.323 112.27C199.637 112.27 198.846 112.129 197.949 111.795C197.72 111.707 197.597 111.461 197.685 111.232C197.773 111.004 198.019 110.881 198.248 110.969C201.941 112.34 203.155 109.914 203.208 109.808C203.313 109.597 203.577 109.492 203.788 109.597C203.999 109.703 204.105 109.966 203.999 110.177C203.982 110.212 202.979 112.27 200.323 112.27Z" fill="#9A3B82"/>
<path d="M199.075 108.964C198.67 108.964 198.231 108.964 197.861 108.929C197.615 108.912 197.439 108.701 197.457 108.454C197.474 108.208 197.685 108.032 197.932 108.05C198.969 108.12 200.57 108.05 200.587 108.05C200.834 108.032 201.027 108.226 201.045 108.472C201.062 108.718 200.869 108.912 200.623 108.929C200.587 108.929 199.866 108.964 199.075 108.964Z" fill="#9A3B82"/>
<path d="M205.829 104.357C206.314 104.357 206.708 103.696 206.708 102.88C206.708 102.065 206.314 101.403 205.829 101.403C205.343 101.403 204.949 102.065 204.949 102.88C204.949 103.696 205.343 104.357 205.829 104.357Z" fill="#9A3B82"/>
<path d="M193.218 104.357C193.703 104.357 194.097 103.696 194.097 102.88C194.097 102.065 193.703 101.403 193.218 101.403C192.732 101.403 192.338 102.065 192.338 102.88C192.338 103.696 192.732 104.357 193.218 104.357Z" fill="#9A3B82"/>
<path d="M195.311 108.296H189.771C188.469 108.296 187.396 107.223 187.396 105.922V100.384C187.396 99.0824 188.469 98.0098 189.771 98.0098H195.311C196.612 98.0098 197.685 99.0824 197.685 100.384V105.922C197.703 106.538 197.457 107.136 197.017 107.575C196.56 108.05 195.962 108.296 195.311 108.296ZM189.771 98.8889C188.944 98.8889 188.276 99.5571 188.276 100.384V105.922C188.276 106.749 188.944 107.417 189.771 107.417H195.311C195.715 107.417 196.102 107.259 196.384 106.96C196.665 106.678 196.806 106.309 196.806 105.922V100.384C196.806 99.5571 196.138 98.8889 195.311 98.8889H189.771Z" fill="white"/>
<path d="M208.871 108.296H203.331C202.029 108.296 200.957 107.223 200.957 105.922V100.384C200.957 99.0824 202.029 98.0098 203.331 98.0098H208.871C210.172 98.0098 211.245 99.0824 211.245 100.384V105.922C211.245 107.223 210.172 108.296 208.871 108.296ZM203.331 98.8889C202.504 98.8889 201.836 99.5571 201.836 100.384V105.922C201.836 106.749 202.504 107.417 203.331 107.417H208.871C209.698 107.417 210.366 106.749 210.366 105.922V100.384C210.366 99.5571 209.698 98.8889 208.871 98.8889H203.331Z" fill="white"/>
<path d="M201.396 101.667H197.263V102.546H201.396V101.667Z" fill="white"/>
<path d="M210.331 179.454H191.108C189.068 179.454 187.415 177.802 187.415 175.762V165.546C187.415 163.506 189.068 161.854 191.108 161.854H210.331C212.371 161.854 214.025 163.506 214.025 165.546V175.762C214.025 177.802 212.371 179.454 210.331 179.454ZM191.108 162.909C189.648 162.909 188.47 164.087 188.47 165.546V175.762C188.47 177.221 189.648 178.399 191.108 178.399H210.331C211.791 178.399 212.969 177.221 212.969 175.762V165.546C212.969 164.087 211.791 162.909 210.331 162.909H191.108Z" fill="#66B0F0"/>
<path d="M201.203 174.813H194.696C193.658 174.813 192.814 173.969 192.814 172.932V168.378C192.814 167.34 193.658 166.496 194.696 166.496H201.203C202.241 166.496 203.085 167.34 203.085 168.378V172.932C203.085 173.969 202.241 174.813 201.203 174.813Z" fill="#66B0F0"/>
<path d="M207.535 174.69L205.53 173.353C204.985 172.984 204.65 172.351 204.65 171.665V169.661C204.65 168.975 204.985 168.342 205.53 167.973L207.535 166.636C208.01 166.32 208.625 166.672 208.625 167.269V174.074C208.643 174.654 208.01 175.006 207.535 174.69Z" fill="#66B0F0"/>
<path d="M467.428 237.005H0.52763C0.22864 237.005 0 236.777 0 236.478C0 236.179 0.22864 235.95 0.52763 235.95H467.428C467.727 235.95 467.955 236.179 467.955 236.478C467.955 236.777 467.727 237.005 467.428 237.005Z" fill="#3FB1B5"/>
<path d="M150.849 239.555V456.639H138.591V415.318C138.591 411.468 135.46 408.338 131.608 408.338H43.8635C40.0118 408.338 36.8812 411.468 36.8812 415.318V456.639H24.6226V239.555H150.849Z" fill="white"/>
<path d="M151.377 457.167H138.063V415.319C138.063 411.767 135.161 408.865 131.609 408.865H43.8638C40.3111 408.865 37.4091 411.767 37.4091 415.319V457.167H24.0952V239.027H151.377V457.167V457.167ZM139.119 456.112H150.322V240.082H25.1505V456.112H36.3538V415.319C36.3538 411.186 39.7307 407.81 43.8638 407.81H131.609C135.742 407.81 139.119 411.186 139.119 415.319V456.112Z" fill="#3FB1B5"/>
<path d="M151.219 239.555V297.158L24.6226 401.375L24.6402 239.555H151.219Z" fill="#D0F0E4"/>
<path d="M131.978 302.591H43.5122C39.5725 302.591 36.3716 299.391 36.3716 295.452V256.083C36.3716 252.145 39.5725 248.944 43.5122 248.944H131.978C135.918 248.944 139.119 252.145 139.119 256.083V295.452C139.119 299.391 135.918 302.591 131.978 302.591ZM43.5122 249.999C40.1529 249.999 37.4268 252.725 37.4268 256.083V295.452C37.4268 298.811 40.1529 301.536 43.5122 301.536H131.978C135.337 301.536 138.064 298.811 138.064 295.452V256.083C138.064 252.725 135.337 249.999 131.978 249.999H43.5122Z" fill="#3FB1B5"/>
<path d="M110.239 331.885H66.6924L64.8809 319.418H108.446L110.239 331.885Z" fill="#FFCF2D"/>
<path d="M133.473 312.228C128.038 312.228 123.641 316.623 123.641 322.057V331.886H86.584V322.057C86.584 316.623 90.9809 312.228 96.4155 312.228H133.473Z" fill="white"/>
<path d="M124.169 332.413H86.0566V322.057C86.0566 316.342 90.6998 311.7 96.4158 311.7H133.473V312.755C128.337 312.755 124.169 316.922 124.169 322.057V332.413ZM87.1119 331.358H123.114V322.057C123.114 317.977 125.488 314.443 128.918 312.755H96.4158C91.2802 312.755 87.1119 316.922 87.1119 322.057V331.358Z" fill="#3FB1B5"/>
<path d="M142.707 319.419H105.65C104.506 315.269 100.69 312.228 96.1699 312.228H133.227C137.747 312.228 141.546 315.269 142.707 319.419Z" fill="white"/>
<path d="M143.411 319.947H105.263L105.158 319.56C104.05 315.551 100.356 312.755 96.188 312.755V311.7H133.245C137.871 311.7 141.986 314.812 143.235 319.279L143.411 319.947ZM106.037 318.892H141.986C140.667 315.252 137.15 312.755 133.228 312.755H100.726C103.205 313.968 105.175 316.166 106.037 318.892Z" fill="#3FB1B5"/>
<path d="M131.978 385.004H43.5122C39.5725 385.004 36.3716 381.804 36.3716 377.865V338.496C36.3716 334.558 39.5725 331.357 43.5122 331.357H131.978C135.918 331.357 139.119 334.558 139.119 338.496V377.865C139.119 381.804 135.918 385.004 131.978 385.004ZM43.5122 332.412C40.1529 332.412 37.4268 335.138 37.4268 338.496V377.865C37.4268 381.224 40.1529 383.949 43.5122 383.949H131.978C135.337 383.949 138.064 381.224 138.064 377.865V338.496C138.064 335.138 135.337 332.412 131.978 332.412H43.5122Z" fill="#3FB1B5"/>
<path d="M105.877 275.513C105.578 275.513 105.35 275.284 105.35 274.985C105.35 272.137 103.046 269.833 100.197 269.833H75.31C72.4608 269.833 70.1568 272.137 70.1568 274.985C70.1568 275.284 69.9282 275.513 69.6292 275.513C69.3302 275.513 69.1016 275.284 69.1016 274.985C69.1016 271.557 71.8804 268.778 75.31 268.778H100.197C103.626 268.778 106.405 271.557 106.405 274.985C106.405 275.284 106.176 275.513 105.877 275.513Z" fill="#3FB1B5"/>
<path d="M105.877 357.926C105.578 357.926 105.35 357.697 105.35 357.398C105.35 354.55 103.046 352.246 100.197 352.246H75.31C72.4608 352.246 70.1568 354.55 70.1568 357.398C70.1568 357.697 69.9282 357.926 69.6292 357.926C69.3302 357.926 69.1016 357.697 69.1016 357.398C69.1016 353.97 71.8804 351.191 75.31 351.191H100.197C103.626 351.191 106.405 353.97 106.405 357.398C106.405 357.697 106.176 357.926 105.877 357.926Z" fill="#3FB1B5"/>
<path d="M448.837 239.555H435.77V457.114H448.837V239.555Z" fill="white"/>
<path d="M449.365 457.642H435.242V239.027H449.365V457.642ZM436.297 456.587H448.31V240.082H436.297V456.587Z" fill="#3FB1B5"/>
<path d="M499.473 457.642H226.758C226.459 457.642 226.23 457.413 226.23 457.114C226.23 456.815 226.459 456.587 226.758 456.587H499.473C499.772 456.587 500 456.815 500 457.114C500 457.413 499.772 457.642 499.473 457.642Z" fill="#3FB1B5"/>
<path d="M61.7334 206.637H53.8365C53.8365 206.637 42.5628 159.672 32.6609 158.142C22.7591 156.612 22.249 174.688 22.249 174.688C22.249 174.688 22.4249 147.205 47.1708 150.968C71.9342 154.731 61.7334 206.637 61.7334 206.637Z" fill="white"/>
<path d="M62.1733 207.165H53.4322L53.3267 206.761C53.2915 206.638 50.4599 194.892 46.4675 183.129C39.8546 163.664 35.2642 159.075 32.5908 158.67C30.7617 158.389 29.1437 158.811 27.807 159.936C23.1463 163.805 22.7945 174.601 22.7945 174.706L21.7393 174.689C21.7393 174.548 21.7744 171.33 22.8121 167.216C23.7794 163.4 25.8196 158.072 30.0934 154.415C34.4376 150.705 40.2063 149.369 47.2765 150.459C51.8493 151.145 55.5604 153.501 58.3216 157.422C62.7537 163.734 64.7763 173.95 64.3014 187.823C63.9497 198.11 62.2964 206.655 62.2788 206.743L62.1733 207.165ZM54.2588 206.11H61.3115C61.6457 204.264 62.9472 196.668 63.2462 187.771C63.5627 178.399 62.8065 165.651 57.4598 158.037C54.8744 154.345 51.3921 152.147 47.1183 151.514C40.3822 150.494 34.8772 151.742 30.7793 155.241C29.5482 156.296 28.4929 157.51 27.6135 158.793C29.1085 157.738 30.8321 157.369 32.7667 157.668C37.0757 158.336 42.0354 166.811 47.4876 182.847C51.0579 193.38 53.7136 203.93 54.2588 206.11Z" fill="#3FB1B5"/>
<path d="M58.2683 206.462C57.9869 206.462 57.7407 206.233 57.7407 205.934C57.1603 170.926 49.7383 158.564 43.6178 154.38C38.9746 151.197 34.9119 152.639 34.8767 152.656C34.5953 152.762 34.2963 152.621 34.1908 152.34C34.0853 152.059 34.226 151.76 34.5074 151.654C34.7008 151.584 39.1153 150.019 44.2158 153.5C48.1554 156.208 51.374 161.167 53.7659 168.27C56.8437 177.414 58.5321 190.074 58.796 205.916C58.796 206.215 58.5673 206.462 58.2683 206.462Z" fill="#3FB1B5"/>
<path d="M83.2428 205.935H46.1504V236.125H83.2428V205.935Z" fill="#FE5244"/>
<path d="M91.0521 221.039C88.6953 222.058 85.8813 221.935 83.2607 220.792C81.3261 219.948 79.497 218.559 78.0196 216.66C75.9794 214.023 74.6076 210.418 74.6076 205.934C74.6076 195.068 65.9544 188.246 62.4017 202.629C62.1555 203.631 61.9269 204.721 61.7334 205.934V205.899V205.829C61.7334 205.794 61.7334 205.741 61.751 205.688V205.618C61.8214 204.721 62.0852 202.066 62.8942 198.866C63.4922 196.492 64.3891 193.855 65.7258 191.411C66.3941 190.197 67.168 189.037 68.0826 187.999C70.4393 185.292 73.6754 183.393 78.0899 183.393C86.2154 183.393 92.1601 192.958 94.4289 202.488C96.4163 210.77 95.6073 219.052 91.0521 221.039Z" fill="white"/>
<path d="M87.5871 222.252C86.0921 222.252 84.5268 221.918 83.0495 221.267C80.9565 220.353 79.0747 218.876 77.5973 216.977C75.2933 214.005 74.0798 210.172 74.0798 205.935C74.0798 200.976 71.8989 195.385 68.6452 194.998C66.2884 194.716 64.2131 197.547 62.9116 202.752C62.6478 203.842 62.4367 204.897 62.2432 206.023L61.188 205.935V205.829C61.188 205.794 61.188 205.706 61.2056 205.618V205.565C61.2759 204.581 61.5573 201.943 62.3664 198.725C63.0875 195.877 64.0548 193.327 65.2507 191.147C66.007 189.793 66.7985 188.633 67.6778 187.648C70.4391 184.465 73.939 182.865 78.0897 182.865C86.5318 182.865 92.6347 192.659 94.9387 202.365C95.9588 206.638 96.2402 210.84 95.7126 214.199C95.1322 217.979 93.5845 220.494 91.2629 221.514C90.1373 222.006 88.8886 222.252 87.5871 222.252ZM68.3286 193.925C68.4869 193.925 68.6276 193.943 68.7683 193.96C72.2858 194.382 75.135 199.763 75.135 205.952C75.135 209.961 76.2782 213.566 78.4415 216.362C79.8133 218.12 81.5545 219.491 83.4716 220.335C85.9866 221.426 88.6775 221.514 90.8408 220.582C94.7804 218.858 96.0291 211.491 93.9186 202.647C92.7403 197.67 90.6473 193.081 88.0444 189.723C85.1072 185.942 81.6776 183.955 78.0897 183.955C74.2732 183.955 71.0371 185.45 68.4869 188.386C67.6602 189.336 66.904 190.409 66.2005 191.71C65.3211 193.327 64.5648 195.138 63.9493 197.143C64.2483 196.651 64.5472 196.211 64.8638 195.824C66.1125 194.294 67.3788 193.925 68.3286 193.925Z" fill="#3FB1B5"/>
<path d="M89.1699 221.9C88.9061 221.9 88.6774 221.707 88.6423 221.425C86.0745 197.318 80.2178 189.863 75.7681 187.859C71.7933 186.065 68.434 188.404 68.3989 188.421C68.1702 188.597 67.8361 188.527 67.6602 188.298C67.4843 188.07 67.5547 187.736 67.7833 187.56C67.9416 187.454 71.6702 184.852 76.1902 186.892C79.1801 188.245 81.7831 191.305 83.9112 196.017C86.5845 201.908 88.5191 210.418 89.6799 221.302C89.7151 221.584 89.5041 221.847 89.2051 221.882C89.2051 221.9 89.1875 221.9 89.1699 221.9Z" fill="#3FB1B5"/>
<path d="M21.7209 174.689C21.7209 177.59 21.3867 188.685 31.9745 189.195C42.5623 189.705 43.6176 173.722 43.6176 173.722C43.6176 173.722 38.4116 159.585 32.6605 158.143C22.9345 155.699 21.7209 174.689 21.7209 174.689Z" fill="#3FB1B5"/>
<path d="M74.6071 205.935H61.7329C64.7052 187.314 74.6071 194.312 74.6071 205.935Z" fill="#3FB1B5"/>
<path opacity="0.4" d="M293.239 69.1714V185.239C293.239 191.482 288.174 196.528 281.948 196.528H149.073C140.737 208.01 123.553 208.063 115.147 196.528L115.129 196.51C111.787 196.282 108.833 194.576 106.933 192.062L109.993 189.424L188.083 122.045L262.443 57.8828H281.948C288.174 57.8828 293.239 62.9468 293.239 69.1714Z" fill="white"/>
<path opacity="0.4" d="M91.0513 221.566C88.7122 222.621 85.8806 222.463 83.26 221.32V236.125H55.876L78.0365 217.012L83.2776 212.493L87.27 209.047L94.991 202.488C97.2422 212.089 95.9935 219.298 91.0513 221.566Z" fill="white"/>
<path d="M324.247 299.689V397.559H301.629L287.225 357.345L266.594 299.689H324.247Z" fill="#A0505A"/>
<path d="M266.594 299.689H324.247V331.111L273.453 318.838L266.594 299.689Z" fill="#73325A"/>
<path d="M324.774 398.086H301.26L286.257 356.202L287.488 356.87C287.524 356.888 290.443 358.453 296.388 359.226C301.875 359.947 311.161 360.106 324.124 356.818L324.774 356.659V398.086V398.086ZM301.998 397.031H323.719V358.013C310.88 361.196 301.664 361.002 296.159 360.281C292.167 359.754 289.529 358.892 288.139 358.33L301.998 397.031Z" fill="white"/>
<path d="M298.991 367.314C297.285 367.314 295.896 365.925 295.896 364.22C295.896 362.514 297.285 361.125 298.991 361.125C300.697 361.125 302.086 362.514 302.086 364.22C302.086 365.925 300.697 367.314 298.991 367.314ZM298.991 362.18C297.865 362.18 296.951 363.094 296.951 364.22C296.951 365.345 297.865 366.259 298.991 366.259C300.117 366.259 301.031 365.345 301.031 364.22C301.031 363.094 300.117 362.18 298.991 362.18Z" fill="white"/>
<path d="M311.232 375.597C309.526 375.597 308.137 374.208 308.137 372.502C308.137 370.796 309.526 369.407 311.232 369.407C312.938 369.407 314.328 370.796 314.328 372.502C314.328 374.208 312.938 375.597 311.232 375.597ZM311.232 370.462C310.107 370.462 309.192 371.377 309.192 372.502C309.192 373.627 310.107 374.542 311.232 374.542C312.358 374.542 313.272 373.627 313.272 372.502C313.272 371.377 312.358 370.462 311.232 370.462Z" fill="white"/>
<path d="M320.342 366.4C318.636 366.4 317.247 365.011 317.247 363.306C317.247 361.6 318.636 360.211 320.342 360.211C322.048 360.211 323.438 361.6 323.438 363.306C323.438 365.011 322.048 366.4 320.342 366.4ZM320.342 361.266C319.216 361.266 318.302 362.18 318.302 363.306C318.302 364.431 319.216 365.345 320.342 365.345C321.468 365.345 322.382 364.431 322.382 363.306C322.382 362.18 321.468 361.266 320.342 361.266Z" fill="white"/>
<path d="M316.737 385.232C315.031 385.232 313.641 383.843 313.641 382.138C313.641 380.432 315.031 379.043 316.737 379.043C318.443 379.043 319.832 380.432 319.832 382.138C319.832 383.843 318.443 385.232 316.737 385.232ZM316.737 380.098C315.611 380.098 314.696 381.012 314.696 382.138C314.696 383.263 315.611 384.177 316.737 384.177C317.862 384.177 318.777 383.263 318.777 382.138C318.777 381.012 317.862 380.098 316.737 380.098Z" fill="white"/>
<path d="M301.559 380.556C299.853 380.556 298.463 379.166 298.463 377.461C298.463 375.755 299.853 374.366 301.559 374.366C303.265 374.366 304.654 375.755 304.654 377.461C304.654 379.166 303.265 380.556 301.559 380.556ZM301.559 375.421C300.433 375.421 299.519 376.336 299.519 377.461C299.519 378.586 300.433 379.501 301.559 379.501C302.684 379.501 303.599 378.586 303.599 377.461C303.599 376.336 302.684 375.421 301.559 375.421Z" fill="white"/>
<path d="M305.744 394.622C304.038 394.622 302.649 393.233 302.649 391.527C302.649 389.822 304.038 388.433 305.744 388.433C307.45 388.433 308.84 389.822 308.84 391.527C308.84 393.233 307.45 394.622 305.744 394.622ZM305.744 389.488C304.619 389.488 303.704 390.402 303.704 391.527C303.704 392.653 304.619 393.567 305.744 393.567C306.87 393.567 307.784 392.653 307.784 391.527C307.784 390.402 306.87 389.488 305.744 389.488Z" fill="white"/>
<path d="M334.94 415.811L319.428 448.006C317.229 453.193 312.146 456.569 306.501 456.569H286.715C281.649 456.569 278.572 451.435 280.506 446.758L300.398 398.79C301.506 395.871 303.458 393.445 305.903 391.739C308.365 390.033 311.32 389.066 314.433 389.066C318.759 389.066 323.051 392.003 325.9 395.256L332.794 402.694C335.978 406.316 336.804 411.397 334.94 415.811Z" fill="#66B0F0"/>
<path d="M334.94 415.811L319.428 448.006C317.23 453.193 312.147 456.569 306.501 456.569H285.466C283.514 456.569 282.406 455.356 281.755 453.685H286.434C292.079 453.685 297.162 450.309 299.361 445.122L317.247 407.828C318.918 404.346 322.453 402.113 326.323 402.113C331.37 402.113 335.204 405.806 335.908 410.483C335.978 412.277 335.662 414.088 334.94 415.811Z" fill="white"/>
<path d="M306.501 457.097H285.466C283.514 457.097 282.089 456.007 281.263 453.879C281.192 453.721 281.227 453.527 281.315 453.387C281.421 453.246 281.579 453.158 281.755 453.158H286.433C291.868 453.158 296.757 449.923 298.868 444.911C298.868 444.911 298.868 444.894 298.885 444.894L316.772 407.599C318.531 403.942 322.277 401.586 326.322 401.586C331.405 401.586 335.661 405.296 336.435 410.413C336.435 410.43 336.435 410.448 336.435 410.466C336.505 412.365 336.171 414.246 335.433 416.022C335.433 416.022 335.433 416.039 335.415 416.039L319.903 448.217C317.616 453.615 312.358 457.097 306.501 457.097ZM282.582 454.213C283.25 455.461 284.182 456.042 285.466 456.042H306.501C311.935 456.042 316.825 452.806 318.935 447.795C318.935 447.795 318.935 447.778 318.953 447.778L334.465 415.6C335.134 413.982 335.45 412.277 335.38 410.536C334.676 405.964 330.877 402.641 326.322 402.641C322.682 402.641 319.305 404.769 317.722 408.057L299.835 445.333C297.549 450.732 292.29 454.213 286.433 454.213H282.582Z" fill="#66B0F0"/>
<path d="M331.37 401.146C329.506 400.127 327.255 399.388 325.285 399.388C321.503 399.388 318.003 401.586 316.368 404.997L297.848 443.61C295.491 449.184 290.039 452.789 283.971 452.789H280.559C280.383 452.455 280.26 452.103 280.137 451.734H283.971C289.617 451.734 294.682 448.375 296.881 443.188L296.898 443.171L315.436 404.54C317.247 400.76 321.116 398.333 325.302 398.333C326.639 398.333 328.239 398.773 329.611 399.247L331.37 401.146Z" fill="white"/>
<path d="M266.594 299.689L262.18 357.345L260.21 383.175C260.21 383.175 247.353 397.488 232.72 388.661L225.949 357.363L210.454 285.746C206.268 266.386 219.494 247.554 239.14 244.935L266.594 299.689Z" fill="#A0505A"/>
<path d="M242.622 392.758C239.474 392.758 236.009 391.967 232.457 389.821L232.263 389.698L225.263 356.606L226.107 356.87C242.763 361.864 261.863 356.905 262.057 356.853L262.778 356.659L260.737 384.107L260.614 384.248C260.474 384.388 257.273 387.922 252.19 390.419C249.64 391.65 246.333 392.758 242.622 392.758ZM233.195 389.03C239.034 392.477 245.26 392.617 251.697 389.47C256.059 387.325 259.084 384.3 259.7 383.65L261.599 358.031C259.999 358.4 255.848 359.297 250.484 359.789C244.311 360.369 235.253 360.51 226.635 358.119L233.195 389.03Z" fill="white"/>
<path d="M241.971 373.82C240.265 373.82 238.875 372.431 238.875 370.726C238.875 369.02 240.265 367.631 241.971 367.631C243.677 367.631 245.066 369.02 245.066 370.726C245.066 372.431 243.677 373.82 241.971 373.82ZM241.971 368.686C240.845 368.686 239.931 369.6 239.931 370.726C239.931 371.851 240.845 372.765 241.971 372.765C243.097 372.765 244.011 371.851 244.011 370.726C244.011 369.6 243.097 368.686 241.971 368.686Z" fill="white"/>
<path d="M258.293 369.882C256.587 369.882 255.197 368.493 255.197 366.787C255.197 365.081 256.587 363.692 258.293 363.692C259.999 363.692 261.388 365.081 261.388 366.787C261.388 368.493 259.999 369.882 258.293 369.882ZM258.293 364.747C257.167 364.747 256.253 365.662 256.253 366.787C256.253 367.912 257.167 368.827 258.293 368.827C259.418 368.827 260.333 367.912 260.333 366.787C260.333 365.662 259.418 364.747 258.293 364.747Z" fill="white"/>
<path d="M232.122 366.4C230.416 366.4 229.027 365.011 229.027 363.306C229.027 361.6 230.416 360.211 232.122 360.211C233.828 360.211 235.218 361.6 235.218 363.306C235.218 365.011 233.828 366.4 232.122 366.4ZM232.122 361.266C230.997 361.266 230.082 362.18 230.082 363.306C230.082 364.431 230.997 365.345 232.122 365.345C233.248 365.345 234.163 364.431 234.163 363.306C234.163 362.18 233.248 361.266 232.122 361.266Z" fill="white"/>
<path d="M239.404 387.8C237.698 387.8 236.308 386.411 236.308 384.705C236.308 382.999 237.698 381.61 239.404 381.61C241.11 381.61 242.499 382.999 242.499 384.705C242.499 386.411 241.11 387.8 239.404 387.8ZM239.404 382.665C238.278 382.665 237.363 383.58 237.363 384.705C237.363 385.83 238.278 386.745 239.404 386.745C240.529 386.745 241.444 385.83 241.444 384.705C241.444 383.58 240.529 382.665 239.404 382.665Z" fill="white"/>
<path d="M251.381 382.665C249.675 382.665 248.285 381.276 248.285 379.57C248.285 377.865 249.675 376.476 251.381 376.476C253.087 376.476 254.476 377.865 254.476 379.57C254.476 381.276 253.087 382.665 251.381 382.665ZM251.381 377.531C250.255 377.531 249.34 378.445 249.34 379.57C249.34 380.696 250.255 381.61 251.381 381.61C252.506 381.61 253.421 380.696 253.421 379.57C253.421 378.445 252.506 377.531 251.381 377.531Z" fill="white"/>
<path d="M277.164 389.33L260.21 457.114H254.863C254.617 457.114 254.388 457.096 254.142 457.079C250.097 456.71 246.685 453.298 245.823 449.272L232.703 388.627C247.336 397.471 260.21 383.158 260.21 383.158L277.164 389.33Z" fill="#66B0F0"/>
<path d="M278.026 424.11C281.596 405.261 282.581 390.86 276.425 389.7C270.27 388.539 259.313 401.041 255.742 419.89C252.172 438.74 254.036 455.409 260.192 456.569C266.348 457.747 274.456 442.977 278.026 424.11Z" fill="white"/>
<path d="M260.896 457.167C260.632 457.167 260.351 457.15 260.087 457.097C256.886 456.499 254.652 452.174 253.79 444.929C252.964 437.949 253.474 429.016 255.215 419.803C256.868 411.099 260.227 402.993 264.677 396.979C268.757 391.476 273.19 388.557 276.514 389.19C279.715 389.788 281.297 393.41 281.385 400.267C281.456 405.859 280.524 413.683 278.536 424.216C277.129 431.636 275.001 438.617 272.381 444.402C269.795 450.116 266.964 454.125 264.202 456.007C263.077 456.763 261.969 457.167 260.896 457.167ZM275.599 390.157C272.785 390.157 269.004 392.935 265.539 397.612C261.177 403.503 257.888 411.45 256.253 419.996C254.529 429.122 254.019 437.931 254.828 444.806C255.62 451.453 257.607 455.55 260.28 456.059C261.3 456.253 262.426 455.936 263.622 455.128C269.021 451.453 274.737 438.67 277.499 424.023C279.486 413.578 280.401 405.806 280.33 400.285C280.26 394.096 278.906 390.72 276.32 390.227C276.092 390.174 275.845 390.157 275.599 390.157Z" fill="#66B0F0"/>
<path d="M253.28 419.591C251.433 429.367 250.888 438.81 251.767 446.195C252.401 451.505 253.737 455.285 255.566 457.114H254.863C254.617 457.114 254.388 457.096 254.142 457.079C252.489 454.898 251.31 451.241 250.712 446.318C249.815 438.845 250.36 429.279 252.242 419.397C254.019 410.043 257.607 401.269 262.373 394.675C265.222 390.737 268.212 387.976 270.938 386.728L272.521 387.255C266.242 389.119 256.71 401.498 253.28 419.591Z" fill="white"/>
<path d="M239.14 244.918L319.375 236.653L399.574 259.143L398.888 269.798C397.798 286.608 383.306 299.69 366.457 299.69H266.612L239.14 244.918Z" fill="#FE5244"/>
<path d="M362.922 292.834H263.076C262.777 292.834 262.549 292.605 262.549 292.306C262.549 292.007 262.777 291.779 263.076 291.779H362.922C370.555 291.779 378.557 287.752 384.889 280.701C390.886 274.02 394.474 265.667 394.474 258.37C394.474 258.071 394.703 257.843 395.002 257.843C395.301 257.843 395.529 258.071 395.529 258.37C395.529 265.931 391.836 274.547 385.68 281.422C379.138 288.667 370.854 292.834 362.922 292.834Z" fill="white"/>
<path d="M355.06 284.041H259.031C258.732 284.041 258.503 283.812 258.503 283.513C258.503 283.214 258.732 282.986 259.031 282.986H355.06C361.726 282.986 368.62 279.856 374.441 274.159C379.911 268.814 383.745 261.921 384.959 255.239C385.012 254.958 385.293 254.765 385.574 254.817C385.856 254.87 386.049 255.151 385.996 255.433C383.517 268.954 370.203 284.041 355.06 284.041Z" fill="white"/>
<path d="M346.6 275.074H253.931C253.632 275.074 253.403 274.846 253.403 274.547C253.403 274.248 253.632 274.019 253.931 274.019H346.6C359.263 274.019 370.256 262.625 374.178 251.917C374.283 251.636 374.582 251.495 374.846 251.6C375.128 251.706 375.268 252.005 375.163 252.269C372.982 258.229 369.042 263.838 364.047 268.058C358.613 272.648 352.58 275.074 346.6 275.074Z" fill="white"/>
<path d="M342.028 265.403H249.358C249.059 265.403 248.831 265.174 248.831 264.875C248.831 264.576 249.059 264.348 249.358 264.348H342.028C350.751 264.348 359.897 258.668 365.912 249.543C366.07 249.296 366.404 249.226 366.65 249.384C366.897 249.543 366.967 249.877 366.809 250.123C360.583 259.548 351.103 265.403 342.028 265.403Z" fill="white"/>
<path d="M337.631 256.611H244.961C244.662 256.611 244.434 256.383 244.434 256.084C244.434 255.785 244.662 255.556 244.961 255.556H337.631C344.349 255.556 351.12 252.462 356.696 246.853C356.907 246.642 357.241 246.642 357.434 246.853C357.646 247.064 357.646 247.398 357.434 247.591C351.666 253.411 344.631 256.611 337.631 256.611Z" fill="white"/>
<path d="M332.882 247.644H240.213C239.914 247.644 239.685 247.415 239.685 247.116C239.685 246.817 239.914 246.589 240.213 246.589H332.882C336.839 246.589 340.814 245.463 344.719 243.265C344.965 243.125 345.299 243.213 345.44 243.459C345.58 243.705 345.493 244.039 345.246 244.18C341.184 246.483 337.015 247.644 332.882 247.644Z" fill="white"/>
<path d="M266.418 300.218C266.225 300.218 266.031 300.112 265.943 299.919L238.489 245.147C238.366 244.883 238.472 244.566 238.718 244.443C238.982 244.32 239.298 244.426 239.421 244.672L266.876 299.444C266.999 299.708 266.893 300.024 266.647 300.147C266.577 300.2 266.506 300.218 266.418 300.218Z" fill="white"/>
<path d="M403.971 185.749C396.408 187.894 388.969 187.261 388.177 184.958C387.439 182.76 390.78 178.997 397.552 176.5C397.886 176.377 398.238 176.254 398.589 176.131C400.629 175.445 402.67 175.006 404.587 174.777C410.268 174.056 414.893 175.076 415.473 176.799C416.265 179.103 411.974 183.481 403.971 185.749Z" fill="white"/>
<path d="M394.966 187.595C391.132 187.595 388.23 186.733 387.667 185.133C386.717 182.32 390.886 178.399 397.358 176.008C397.692 175.884 398.044 175.761 398.396 175.638H398.413C400.401 174.97 402.458 174.513 404.516 174.267C410.338 173.528 415.262 174.548 415.966 176.641C416.212 177.326 416.089 178.17 415.632 179.049C414.154 181.863 409.634 184.711 404.112 186.276C400.928 187.155 397.71 187.595 394.966 187.595ZM408.192 175.076C407.119 175.076 405.941 175.146 404.657 175.304C402.67 175.55 400.682 175.99 398.765 176.641C398.413 176.764 398.062 176.887 397.745 177.01C394.685 178.135 392.082 179.63 390.429 181.23C389.039 182.566 388.388 183.902 388.687 184.799C389.268 186.505 396.039 187.454 403.83 185.256C408.139 184.043 413.169 181.494 414.699 178.557C415.016 177.942 415.122 177.397 414.981 176.975C414.664 176.043 412.167 175.076 408.192 175.076Z" fill="#3FB1B5"/>
<path d="M399.187 237.022H396.285L388.67 185.625V185.59L388.476 184.307C388.845 181.968 392.504 178.662 398.958 176.517C402.177 175.444 405.378 174.97 408.104 174.917L410.883 182.531L411.147 183.252L419.94 207.358C425.217 221.759 414.541 237.022 399.187 237.022Z" fill="#A0505A"/>
<path d="M411.059 183.076C409.212 184.236 406.82 185.309 403.971 186.118C397.428 187.964 390.798 187.208 388.67 185.625V185.59L388.476 184.307C388.845 181.968 392.504 178.662 398.958 176.517C402.177 175.444 405.378 174.97 408.104 174.917L411.059 183.076Z" fill="#73325A"/>
<path d="M304.988 194.734L295.754 217.698C291.199 229.039 280.189 236.477 267.948 236.477H143.832V225.118C143.832 222.375 145.52 219.914 148.088 218.946L160.839 214.111C162 213.671 163.214 213.443 164.445 213.443H178.919L260.843 205.179L274.983 172.808L304.988 194.734Z" fill="#A0505A"/>
<path d="M144.36 229.919C144.061 229.919 143.832 229.69 143.832 229.391C143.832 227.088 145.221 225.066 147.385 224.239L157.005 220.6C157.269 220.494 157.586 220.635 157.691 220.899C157.797 221.162 157.656 221.479 157.392 221.584L147.772 225.224C146.03 225.892 144.887 227.528 144.887 229.391C144.887 229.69 144.659 229.919 144.36 229.919Z" fill="#73325A"/>
<path d="M144.36 235.721C144.061 235.721 143.832 235.492 143.832 235.193C143.832 232.89 145.221 230.868 147.385 230.041L157.005 226.401C157.269 226.296 157.586 226.437 157.691 226.7C157.797 226.964 157.656 227.281 157.392 227.386L147.772 231.026C146.03 231.694 144.887 233.329 144.887 235.193C144.887 235.492 144.659 235.721 144.36 235.721Z" fill="#73325A"/>
<path d="M147.578 236.477C147.367 236.477 147.156 236.336 147.085 236.125C146.98 235.844 147.121 235.545 147.402 235.457L157.022 231.993C157.304 231.888 157.603 232.028 157.691 232.31C157.796 232.591 157.656 232.89 157.374 232.978L147.754 236.442C147.701 236.459 147.631 236.477 147.578 236.477Z" fill="#73325A"/>
<path d="M156.196 216.062C156.196 216.062 165.201 193.081 168.086 193.468C170.97 193.855 160.101 214.585 160.101 214.585L156.196 216.062Z" fill="#FE5244"/>
<path d="M274.983 172.825L272.908 177.555L299.483 208.414L304.988 194.734L274.983 172.825Z" fill="#73325A"/>
<path d="M388.67 185.644L399.575 259.142L319.392 236.653L304.988 194.717L267.808 167.55L280.858 152.007C292.501 138.133 309.684 130.115 327.799 130.115H353.565C375.972 130.115 396.602 142.353 407.348 162.011L415.702 176.465C415.702 176.465 413.187 172.773 399.627 176.483C387.685 179.771 388.67 185.644 388.67 185.644Z" fill="#3FB1B5"/>
<path d="M304.988 194.91C304.953 194.91 304.9 194.91 304.865 194.892C304.583 194.822 304.408 194.541 304.478 194.259L308.646 176.184C308.717 175.902 308.998 175.726 309.279 175.797C309.561 175.867 309.737 176.148 309.666 176.43L305.498 194.506C305.445 194.752 305.234 194.91 304.988 194.91Z" fill="white"/>
<path d="M397.552 242.508C397.305 242.508 397.077 242.332 397.024 242.068L383.464 157.791C383.411 157.51 383.604 157.228 383.903 157.193C384.185 157.14 384.466 157.334 384.501 157.633L398.062 241.91C398.114 242.191 397.921 242.473 397.622 242.508C397.604 242.508 397.587 242.508 397.552 242.508Z" fill="white"/>
<path d="M399.399 259.669C399.346 259.669 399.311 259.669 399.258 259.652L319.234 236.828C318.953 236.741 318.794 236.459 318.865 236.178C318.953 235.897 319.234 235.738 319.516 235.809L399.539 258.632C399.821 258.72 399.979 259.001 399.909 259.282C399.838 259.511 399.627 259.669 399.399 259.669Z" fill="white"/>
<path d="M323.701 118.369V130.185L344.56 130.009V109.155L323.701 118.369Z" fill="#A0505A"/>
<path d="M346.248 105.516V105.832C346.248 108.997 343.857 111.564 340.691 111.564H339.46C338.668 114.694 331.633 118.352 326.638 118.352H320.817C314.45 118.352 309.578 112.637 310.616 106.342L310.897 104.637L309.174 103.669C308.189 103.107 307.907 101.823 308.593 100.909L312.322 95.9856L313.131 91.1325C313.782 87.1411 316.402 83.8882 319.885 82.2881C321.256 97.7439 334.904 99.5726 338.51 99.7836H340.515C343.681 99.7836 346.248 102.351 346.248 105.516Z" fill="#A0505A"/>
<path d="M337.015 107.555C336.716 107.555 336.487 107.327 336.487 107.028C336.487 104.25 338.756 101.981 341.535 101.981C341.834 101.981 342.063 102.21 342.063 102.509C342.063 102.808 341.834 103.036 341.535 103.036C339.337 103.036 337.543 104.83 337.543 107.028C337.543 107.327 337.314 107.555 337.015 107.555Z" fill="#73325A"/>
<path d="M317.95 99.9417C318.446 99.9417 318.847 99.0127 318.847 97.8668C318.847 96.7209 318.446 95.792 317.95 95.792C317.455 95.792 317.053 96.7209 317.053 97.8668C317.053 99.0127 317.455 99.9417 317.95 99.9417Z" fill="#73325A"/>
<path d="M321.608 95.2472C321.45 95.2472 321.291 95.1769 321.186 95.0362C318.847 91.8009 316.666 91.9767 316.631 91.9767C316.332 92.0119 316.085 91.8009 316.05 91.5019C316.015 91.2206 316.226 90.9569 316.525 90.9217C316.631 90.9041 319.339 90.6931 322.03 94.4032C322.206 94.6318 322.153 94.9659 321.907 95.1417C321.819 95.212 321.713 95.2472 321.608 95.2472Z" fill="#73325A"/>
<path d="M338.51 99.7838H340.515C343.681 99.7838 346.248 102.351 346.248 105.516V105.832C346.248 108.997 343.856 111.565 340.691 111.565L339.336 112.514C333.638 116.171 325.759 130.555 327.693 140.735C329.874 152.182 339.846 154.732 349.062 152.974C358.278 151.215 364.997 145.852 362.816 134.388C362.57 133.034 362.165 131.68 361.655 130.344C361.813 130.396 361.954 130.449 362.112 130.502C373.193 133.526 386.208 133.878 389.796 125.227C393.383 116.576 392.574 108.013 381.793 103.547C375.532 100.944 367.019 100.962 360.424 102.755C363.748 91.2031 357.839 78.3496 346.987 77.066C329.945 75.0439 320.166 82.0773 319.902 82.2707C319.884 84.3104 321.274 98.7815 338.51 99.7838Z" fill="#73325A"/>
<path d="M362.112 131.047C361.866 131.047 361.637 130.871 361.602 130.625C359.738 120.866 351.753 115.485 351.665 115.433C351.524 115.345 351.437 115.169 351.437 114.993C351.437 114.817 351.524 114.659 351.665 114.554C357.117 110.703 359.474 105.146 360.389 102.192C360.477 101.911 360.776 101.753 361.039 101.841C361.321 101.929 361.479 102.228 361.391 102.491C360.477 105.48 358.155 110.966 352.861 114.976C354.849 116.47 360.987 121.71 362.64 130.414C362.693 130.695 362.499 130.976 362.218 131.029C362.183 131.047 362.148 131.047 362.112 131.047Z" fill="white"/>
<path d="M365.648 102.491H360.988C360.689 102.491 360.46 102.263 360.46 101.964V97.3042C360.46 94.5788 362.676 92.3633 365.402 92.3633H365.648C368.374 92.3633 370.591 94.5788 370.591 97.3042V97.5504C370.608 98.8516 370.098 100.1 369.166 101.032C368.234 101.964 366.985 102.491 365.648 102.491ZM361.515 101.436H365.648C366.704 101.436 367.671 101.032 368.41 100.276C369.131 99.5373 369.535 98.5702 369.535 97.5504V97.3042C369.535 95.159 367.794 93.4183 365.648 93.4183H365.402C363.256 93.4183 361.515 95.159 361.515 97.3042V101.436Z" fill="#FE5244"/>
<path d="M368.251 109.631C366.369 109.631 364.557 108.716 363.485 107.028L360.495 102.281C360.336 102.034 360.407 101.7 360.653 101.56L365.402 98.5705C366.668 97.7793 368.181 97.5155 369.64 97.8496C371.1 98.1837 372.349 99.0629 373.158 100.329L373.439 100.768C374.248 102.034 374.495 103.547 374.16 105.006C373.826 106.465 372.947 107.714 371.68 108.523L371.241 108.804C370.326 109.349 369.289 109.631 368.251 109.631ZM361.673 102.158L364.382 106.465C365.718 108.575 368.55 109.208 370.696 107.872L371.135 107.591C372.173 106.94 372.876 105.938 373.14 104.742C373.404 103.547 373.193 102.333 372.542 101.296L372.261 100.856C371.61 99.8189 370.608 99.1156 369.412 98.8519C368.216 98.5881 367.002 98.7991 365.964 99.4497L361.673 102.158Z" fill="#FE5244"/>
<path d="M339.442 123.697C339.319 123.697 339.196 123.697 339.073 123.68C337.754 123.574 336.558 122.977 335.696 121.974L335.537 121.781C334.676 120.796 334.254 119.53 334.341 118.229C334.429 116.91 335.027 115.697 336.03 114.835L339.336 111.67C339.442 111.565 339.583 111.512 339.723 111.53C339.864 111.53 340.005 111.6 340.093 111.706L343.346 115.38C344.208 116.383 344.648 117.666 344.542 118.985C344.437 120.304 343.839 121.499 342.836 122.361L342.625 122.519C341.764 123.275 340.638 123.697 339.442 123.697ZM339.688 112.796L336.769 115.591L336.751 115.609C335.96 116.295 335.485 117.244 335.414 118.299C335.344 119.337 335.678 120.321 336.347 121.095C336.347 121.095 336.346 121.113 336.364 121.113L336.522 121.306C337.191 122.08 338.123 122.555 339.161 122.642C340.198 122.713 341.201 122.379 341.992 121.71L342.203 121.535C342.977 120.866 343.452 119.935 343.54 118.897C343.61 117.86 343.276 116.857 342.608 116.066L339.688 112.796Z" fill="#FE5244"/>
<path d="M346.178 121.763C343.716 121.763 341.447 120.128 340.744 117.649L339.249 112.251C339.178 111.969 339.336 111.688 339.618 111.6L345.017 110.105C346.459 109.701 347.972 109.894 349.274 110.615C350.575 111.354 351.525 112.55 351.929 113.991L352.07 114.501C352.474 115.943 352.281 117.455 351.56 118.756C350.821 120.058 349.625 121.007 348.183 121.412L347.673 121.552C347.163 121.71 346.671 121.763 346.178 121.763ZM341.764 117.367C342.449 119.776 344.965 121.218 347.374 120.55L347.884 120.409C349.062 120.075 350.03 119.319 350.628 118.264C351.226 117.209 351.366 115.978 351.05 114.8L350.909 114.29C350.575 113.112 349.819 112.145 348.763 111.547C347.708 110.949 346.477 110.809 345.299 111.125L340.409 112.479L341.764 117.367Z" fill="#FE5244"/>
<path d="M262.619 457.097C262.584 457.097 262.548 457.097 262.513 457.079C262.232 457.027 262.038 456.745 262.109 456.446L292.747 313.089C292.799 312.807 293.081 312.614 293.38 312.684C293.661 312.737 293.855 313.018 293.784 313.317L263.129 456.675C263.076 456.921 262.865 457.097 262.619 457.097Z" fill="#FFCF2D"/>
<path d="M402.3 457.097C402.054 457.097 401.843 456.921 401.79 456.675L371.152 313.317C371.1 313.036 371.276 312.754 371.557 312.684C371.838 312.631 372.12 312.807 372.19 313.089L402.828 456.446C402.881 456.727 402.705 457.009 402.423 457.079C402.37 457.097 402.335 457.097 402.3 457.097Z" fill="#FFCF2D"/>
<path d="M395.089 425.27H269.408C269.109 425.27 268.88 425.041 268.88 424.742C268.88 424.443 269.109 424.215 269.408 424.215H395.089C395.388 424.215 395.617 424.443 395.617 424.742C395.617 425.041 395.388 425.27 395.089 425.27Z" fill="#FFCF2D"/>
<path d="M395.775 313.211H269.126C267.526 313.211 266.224 311.91 266.224 310.31V302.591C266.224 300.991 267.526 299.689 269.126 299.689H395.775C397.375 299.689 398.677 300.991 398.677 302.591V310.31C398.677 311.91 397.375 313.211 395.775 313.211Z" fill="white"/>
<path d="M395.775 313.739H269.126C267.226 313.739 265.696 312.209 265.696 310.31V302.591C265.696 300.692 267.226 299.162 269.126 299.162H395.775C397.674 299.162 399.204 300.692 399.204 302.591V310.31C399.204 312.209 397.674 313.739 395.775 313.739ZM269.126 300.217C267.824 300.217 266.752 301.29 266.752 302.591V310.31C266.752 311.611 267.824 312.684 269.126 312.684H395.775C397.076 312.684 398.149 311.611 398.149 310.31V302.591C398.149 301.29 397.076 300.217 395.775 300.217H269.126Z" fill="#66B0F0"/>
</svg>
